<svg id="Layer_1" data-name="Layer 1" xmlns="http://www.w3.org/2000/svg" viewBox="0 0 365.08 189.46">
  <defs>
    <style>
      .cls-1 {
        font-size: 50px;
        font-family: Borel-Regular, Borel;
      }

      .cls-2 {
        fill: none;
        stroke: #231f20;
      }
    </style>
  </defs>
  <g>
    <g>
      <g>
        <g>
          <path d="M419.23,218.09H400v73.07H388.94V261.05A29.06,29.06,0,0,1,372.5,266a28.61,28.61,0,0,1-18.71-6.49A21.46,21.46,0,0,1,345.28,242V218.09h-7.93V208h81.88Zm-25.7,43.15-37,30.3L351.33,285l37-30.29Zm-4.59-12.16v-31H356.37v21.17q0,7.8,5.61,12.15a18.7,18.7,0,0,0,11.71,3.66A22.52,22.52,0,0,0,388.94,249.08Z" transform="translate(-318.85 -146.19)"/>
          <path d="M452.87,218.09H433.66v73.07H422.57V218.09H414.7V208h6.42L395,180.68l7.56-7.63,31.75,35h18.58Z" transform="translate(-318.85 -146.19)"/>
        </g>
        <g>
          <path d="M466.75,234.62c-3.39,0-5.95-1.11-7.7-3.34s-2.63-5.51-2.63-9.84q0-6.75,2.63-10.21c1.75-2.31,4.31-3.47,7.7-3.47a8.18,8.18,0,0,1,4.91,1.37,5.34,5.34,0,0,1,2.19,3.81h2l-1.76,7.37a10,10,0,0,0-1.58-6.08,5.45,5.45,0,0,0-4.62-2.07,5.39,5.39,0,0,0-4.74,2.34q-1.61,2.35-1.61,6.94,0,4.34,1.61,6.56a6.16,6.16,0,0,0,9.36.15,9.93,9.93,0,0,0,1.58-6.08l1.76,7.37h-2.25a5.17,5.17,0,0,1-2.06,3.81A7.81,7.81,0,0,1,466.75,234.62Zm-8.23,11.18-.24-4.73,8.3-.25q3.93-.12,5.71-2.17t1.81-6v-18.9l.49-5.47h4.68v23.59q0,6.9-3.15,10.2t-10,3.52Z" transform="translate(-318.85 -146.19)"/>
          <path d="M485.33,234.13v-4.25h17.28v4.25Zm1-21.63v-4.25H495l.49,4.25Zm4.78,21.63V208.25h4.2l1,7.42v18.46ZM496.27,223l-1.52-8.11h2q.45-7.12,7.13-7.13,4,0,5.81,2.3t1.81,7.42h-5.13a7.53,7.53,0,0,0-.84-4.08,3,3,0,0,0-2.72-1.24,5.31,5.31,0,0,0-4.92,2.82Q496.27,217.8,496.27,223Z" transform="translate(-318.85 -146.19)"/>
          <path d="M523.51,234.62a9.2,9.2,0,0,1-6.27-2,7,7,0,0,1-2.22-5.52,7.3,7.3,0,0,1,3.06-6.3c2-1.46,4.93-2.2,8.66-2.2a28.23,28.23,0,0,1,4.13.28,14.84,14.84,0,0,1,3.24.85L533,223.29a19,19,0,0,0-3.19-.43c-1.05,0-2.11-.06-3.2-.06q-6.74,0-6.74,4.11a3.19,3.19,0,0,0,1.16,2.63,5.12,5.12,0,0,0,3.28.93,8.86,8.86,0,0,0,4-.83,5.86,5.86,0,0,0,2.43-2.12,5,5,0,0,0,.81-2.67V222l1.51,6.64h-2l.83-.78a6.38,6.38,0,0,1-1,3.75,6.24,6.24,0,0,1-2.91,2.25A12.24,12.24,0,0,1,523.51,234.62Zm9.13-.24-.34-7.67-.68-2.15v-6.69a4.23,4.23,0,0,0-1.82-3.79,10.28,10.28,0,0,0-5.41-1.31l-6.2-.17.49-4.59,5.22.07q6.42.1,9.54,2.77t3.11,7.8v10.79l4.39.54v4.15Z" transform="translate(-318.85 -146.19)"/>
          <path d="M544.7,234.13V208.25h4.59l.59,5.47v20.41Zm9.72,0V213.87c0-1.47-.68-2.2-2-2.2q-2.49,0-2.49,3.52l-1.51-3.71H550q.29-3.72,4.44-3.72a3.94,3.94,0,0,1,3.19,1.4,6.48,6.48,0,0,1,1.16,4.22v20.75Zm8.94,0V214.36c0-1.79-.67-2.69-2-2.69q-2.54,0-2.53,3.52l-1.76-3.71h2a4.08,4.08,0,0,1,1.21-2.62,4.23,4.23,0,0,1,3.14-1.1,4.84,4.84,0,0,1,3.9,1.45,7.19,7.19,0,0,1,1.22,4.66v20.26Z" transform="translate(-318.85 -146.19)"/>
          <path d="M574,234.13V208.25h4.59l.59,5.47v20.41Zm9.72,0V213.87c0-1.47-.69-2.2-2.05-2.2q-2.49,0-2.49,3.52l-1.52-3.71h1.66q.3-3.72,4.45-3.72a3.91,3.91,0,0,1,3.18,1.4,6.42,6.42,0,0,1,1.16,4.22v20.75Zm8.93,0V214.36c0-1.79-.66-2.69-2-2.69q-2.53,0-2.54,3.52l-1.76-3.71h2a4.08,4.08,0,0,1,1.21-2.62,4.2,4.2,0,0,1,3.13-1.1,4.87,4.87,0,0,1,3.91,1.45,7.19,7.19,0,0,1,1.22,4.66v20.26Z" transform="translate(-318.85 -146.19)"/>
          <path d="M617.7,234.62q-6.62,0-10.21-3.48t-3.61-10q0-6.34,3.06-9.86t8.61-3.52q5.25,0,8.12,3.18t2.87,9.23c0,1.19,0,2.29-.15,3.32H608.23v-4h13.62a7.82,7.82,0,0,0-1.66-5.36,5.83,5.83,0,0,0-4.59-1.86,6.19,6.19,0,0,0-5.11,2.24,9.88,9.88,0,0,0-1.82,6.35q0,4.48,2.5,6.84t7.12,2.34a27.68,27.68,0,0,0,3.17-.18c1-.13,2.1-.29,3.18-.5l.63,4.54a34.38,34.38,0,0,1-4.2.56C619.8,234.58,618.68,234.62,617.7,234.62Z" transform="translate(-318.85 -146.19)"/>
          <path d="M631.81,234.13v-4.25H649.1v4.25Zm1-21.63v-4.25h8.64l.49,4.25Zm4.79,21.63V208.25h4.19l1,7.42v18.46ZM642.75,223l-1.51-8.11h2q.43-7.12,7.13-7.13c2.67,0,4.6.77,5.81,2.3s1.81,4,1.81,7.42h-5.13a7.53,7.53,0,0,0-.84-4.08,3.06,3.06,0,0,0-2.73-1.24,5.33,5.33,0,0,0-4.92,2.82Q642.75,217.8,642.75,223Z" transform="translate(-318.85 -146.19)"/>
        </g>
        <text class="cls-1" transform="translate(137.6 145.26)">gamer</text>
      </g>
      <path d="M458,253c-11.23,14,206.06,2.38,207,6C676.23,245,458.94,256.61,458,253Z" transform="translate(-318.85 -146.19)"/>
    </g>
    <path class="cls-2" d="M681.53,249.69c-2.87-6-7.89-9.36-14.43-11.39v-2.82H676v-18c0-7.54-1.91-13.78-5.67-18.56a23.68,23.68,0,0,0-12.7-8.24l-.06-.43h-1.83a29.27,29.27,0,0,0-5.36-.49,27.79,27.79,0,0,0-5.23.49h-24a32.81,32.81,0,0,0-5.58-.49,31,31,0,0,0-12.14,2.41,24.76,24.76,0,0,0-15.25-2,22.85,22.85,0,0,0-4.39-.43,25.31,25.31,0,0,0-5,.49H568.43a25.74,25.74,0,0,0-5-.49,24.19,24.19,0,0,0-4.54.43,23,23,0,0,0-4.4-.43,25.46,25.46,0,0,0-5,.49H527.42c-1.06-.09-2.15-.15-3.26-.17l-18.47-.26c-.59,0-1.2-.06-1.81-.06l-.93,0h-.43v0a26.66,26.66,0,0,0-3.85.45H472.08l-1.21-.2v0h-.32a29.7,29.7,0,0,0-3.8-.25,31.48,31.48,0,0,0-3.92.25H442.25l-39.13-43.1-33.26,33.54L379,190H319.35v46.08h7.93V242a39,39,0,0,0,12.53,29.12l-13.63,11.17L353.86,317l17.08-14v6.13h74.62a26.75,26.75,0,0,0,7,17.81,25.58,25.58,0,0,0,18.95,8.18c9,0,16.58-3.71,21.43-10.43a29.91,29.91,0,0,0,5.24-14.58,28.57,28.57,0,0,0,7.13-.95,26,26,0,0,0,5.8.92c.42,0,.83,0,1.25,0h0a27.21,27.21,0,0,0,10.27-1.94l.65.23a24.68,24.68,0,0,0,8.18,1.36,25.49,25.49,0,0,0,4.13-.35,28.56,28.56,0,0,0,3.19-.73,25.79,25.79,0,0,0,7.38,1.08,25.49,25.49,0,0,0,4.13-.35,28.79,28.79,0,0,0,3.26-.75l1.65-.5a25.35,25.35,0,0,0,9.8,1.95h0c.44,0,.89,0,1.33,0a32.26,32.26,0,0,0,7.3-1.15,30.88,30.88,0,0,0,7.46,1.16l.58,0,.53,0h.1l.5,0,.56,0a34.22,34.22,0,0,0,16.29-4.69,25.23,25.23,0,0,0,14.8,4.73h0a24.67,24.67,0,0,0,10-2.08,23.82,23.82,0,0,0,8.24-6l4.19-4.72.33-6.3a21.53,21.53,0,0,0-2.8-11.72,22.22,22.22,0,0,0-2-2.89c7.11-.12,13.35-.2,18.37-.21l5.72,22,22.45-28A19.32,19.32,0,0,0,681.53,249.69Z" transform="translate(-318.85 -146.19)"/>
  </g>
</svg>
