<svg xmlns="http://www.w3.org/2000/svg" viewBox="0 0 168 168"><defs><style>.cls-1{fill:#fff;}.cls-2{fill:#f8dc3d;}.cls-3{fill:#2e2e2c;}</style></defs><g id="Layer_2" data-name="Layer 2"><g id="Layer_1-2" data-name="Layer 1"><g id="Layer_2-2" data-name="Layer 2"><path class="cls-1" d="M0,84C2,80.11,5.91,72.76,9.83,69.9a4.43,4.43,0,0,0,.62-.68,1.61,1.61,0,0,1,.49-.34c1.11-.54,3,.25,4.84,1.26a38.54,38.54,0,0,0,4,1.85.4.4,0,0,0,.56-.28,81.55,81.55,0,0,1,3.84-11c1.14-2.64,2.35-6.14,3.59-9.7a.42.42,0,0,0-.31-.56A17.72,17.72,0,0,1,22,48.7a1.69,1.69,0,0,1-.43-.41.52.52,0,0,0-.66-.19c-2.15,1.19-3.52,3.24-5.7,6.25-2,2.69-5.58,7.91-7.69,8.09A1.7,1.7,0,0,1,6.27,62a1.25,1.25,0,0,0-.8-.29,17.82,17.82,0,0,1-4.53-.14,5.78,5.78,0,0,0-.93,0H0V58.58H.13A1.42,1.42,0,0,0,1,58.35c1-.62,2.13-.07,3.66.45a.39.39,0,0,0,.53-.21.94.94,0,0,1,.15-.32c.7-1.11,1.42-.56,3-1.7a44.59,44.59,0,0,0,6.8-6.42c2-2.3,3.82-5,6.23-5.76A1.64,1.64,0,0,0,22,44a.63.63,0,0,1,.24-.18c1.16-.42,2.95.55,4.68,1.74.58.41,1.19.79,1.84,1.17a.37.37,0,0,0,.56-.21c.53-1.47,1.06-2.89,1.59-4.18.66-2.12-.71-3.93.14-5.79.74-1.64,6.61-3.46,9-3.28a8.36,8.36,0,0,0,4.45-.62.31.31,0,0,0,.16-.52,35,35,0,0,0-2.45-2.83c-1.47-1.51-2.62-3.33-2.6-4.56,0,0,0-.08,0-.13s-.18-.16-.44-.2a19.27,19.27,0,0,0-3-.1c-2.78.15-9.44.37-10-.06a1.84,1.84,0,0,1-.69-1.3.81.81,0,0,0-.47-.62,17.77,17.77,0,0,1-4.71-2.85A6.09,6.09,0,0,0,16.93,18c-1.13-.1-2.15.22-2.23-.1s2.45-2.15,4-2a4.79,4.79,0,0,1,2.7,1,1.5,1.5,0,0,0,.84.21C23.64,17,24.4,18.56,26,20a.49.49,0,0,0,.6.09,1.09,1.09,0,0,1,.31-.18c.86-.37,1.93.52,3.64,1.13a17.66,17.66,0,0,0,6,.88,12.7,12.7,0,0,1,4.92.56,4.1,4.1,0,0,0,.91.14,1.86,1.86,0,0,1,1.38.91c1,1.48,2.64,4.94,4.41,8.1a.87.87,0,0,0,.7.41c2.38,0,4,.44,5.21-.86a6.75,6.75,0,0,1,2.34-1.45,8.83,8.83,0,0,0,1.61-3,1.21,1.21,0,0,1,.68-.82.74.74,0,0,0,.52-.54c1.09-9.55-2.54-19.94-2.83-21.35a4.38,4.38,0,0,1,0-1.8.87.87,0,0,0-.2-.79,8,8,0,0,1-.82-.92A3.22,3.22,0,0,1,55.05,0h3.28a2.28,2.28,0,0,1-.17,1.09.72.72,0,0,0,.18.73C59.72,3.16,60.22,7,60.61,11.2c.47,5.09.69,11-.35,15.27l-.07.24a.61.61,0,0,0,.22.61c.23.14.55,0,.87-.59.46-.9,2.2-1.38,4-.64a.09.09,0,0,0,.06,0l.07,0c1.85.65,2.84,2.16,2.59,3.14-.17.68,0,1,.26,1a.57.57,0,0,0,.55-.31l.12-.22c2.08-3.93,6.13-8.18,9.85-11.68,3.11-2.93,6-5.43,7.93-5.52a.72.72,0,0,0,.61-.43,2.89,2.89,0,0,1,1.32-1.5,29.27,29.27,0,0,1,4.75-2.75,1.76,1.76,0,0,1,1,.09.53.53,0,0,0,.66-.18,4.36,4.36,0,0,1,1.45-1.45c1-.5,5.59-2.68,6.85-2.7a1.42,1.42,0,0,1,.92,2.63C102.91,7.25,99.87,8.21,98,9a7.24,7.24,0,0,1-2,.56.61.61,0,0,0-.53.41c-.24.46-.9.75-1.35,1.08a19.37,19.37,0,0,1-4.31,2.61,8,8,0,0,1-1.23.15.89.89,0,0,0-.67.46,4.11,4.11,0,0,1-1.16,1.37C85.58,16.45,76,21.83,70.47,29.7a.77.77,0,0,0,0,.76,1.23,1.23,0,0,1,0,1.06,8.81,8.81,0,0,0-.78,3.3,6.88,6.88,0,0,1,.8,2.64c.05,1.79,1.53,2.54,3.32,4.1a.91.91,0,0,0,.81.16c3.41-1.2,7-2.69,8.67-3.15a1.82,1.82,0,0,1,1.62.23,4.59,4.59,0,0,0,.79.5,12.48,12.48,0,0,1,4,2.85,17.77,17.77,0,0,0,5,3.28c1.69.68,3.09.73,3.49,1.57a1.23,1.23,0,0,1,.11.34.51.51,0,0,0,.51.34c2.14-.09,3.76-.75,4.76.26a1.44,1.44,0,0,0,.77.4,4.84,4.84,0,0,1,2.71,1c1.23.92,1.92,4,1.65,4.15s-.83-.72-1.75-1.4a6,6,0,0,0-3.54-1,17.61,17.61,0,0,1-5.41-1,.78.78,0,0,0-.77.16,1.84,1.84,0,0,1-1.38.51c-.72,0-5.56-4.65-7.55-6.6A18.64,18.64,0,0,0,86,42.19c-.22-.15-.42-.2-.46-.15a1,1,0,0,1-.08.11c-.81.93-2.88,1.54-5,1.69a32.61,32.61,0,0,0-3.71.5.31.31,0,0,0-.23.49,8.3,8.3,0,0,0,2.93,3.41c1.92,1.46,5.11,6.72,4.59,8.44-.61,2-2.83,2.4-3.74,4.42-.46,1.32-1,2.74-1.58,4.19a.39.39,0,0,0,.3.53c.74.15,1.44.26,2.14.35,2.1.25,4.07.71,4.66,1.79a.66.66,0,0,1,.07.3,1.7,1.7,0,0,0,.25.7c1.33,2.14.87,5.39.85,8.44,0,1.73.08,3.55.23,5.18a6,6,0,0,0-1.87,4.35v5.13a1.47,1.47,0,0,1-.8-.41c-1.46-1.54-.72-7.85-.39-11.16.36-3.69.68-6.14-.13-8.46a.53.53,0,0,0-.63-.29,1.91,1.91,0,0,1-.59,0,17.8,17.8,0,0,1-5.28-2.29.42.42,0,0,0-.59.22c-1.44,3.49-2.85,6.91-3.74,9.64A82.79,82.79,0,0,1,68.88,90.1a.41.41,0,0,0,.24.58A40.09,40.09,0,0,0,73.35,92c2.05.47,4,1.12,4.45,2.26a1.31,1.31,0,0,1,.13.58,5.66,5.66,0,0,0,0,.92c1.21,5.53-1.67,15.64-2.43,18.91a39.51,39.51,0,0,0-1.2,8.66c0,2,.71,2.49.44,3.69a1.38,1.38,0,0,1-.41.65c-.21.18-.21.39,0,.51,1.52.8,2.82,1.2,3.06,2.4a1.43,1.43,0,0,0,.42.76,5.19,5.19,0,0,1,1.95,3.08c.64,2.63-1.21,4.8-1.58,4.64s.68-1.16,0-3.11c-.39-1.16-1.57-1.59-2.35-2.49a5.07,5.07,0,0,0-.67-.64,16.91,16.91,0,0,1-3.88-3.94,1.72,1.72,0,0,0-.68-.57,1,1,0,0,1-.58-.68c-.72-2.89,1.39-7,2.08-10.26,1.07-5,3.25-14.46,3.06-19.14a.46.46,0,0,0-.42-.45,1.74,1.74,0,0,1-.39,0c-1.88-.46-4.53-2.5-6.84-4.09a.43.43,0,0,0-.62.15c-.69,1.23-1.42,2.43-2.19,3.57a3.81,3.81,0,0,1-1.38,1.28,2.15,2.15,0,0,0-.68.59c-.64,1-2.38,3.69-4,4.68A1,1,0,0,1,58,104a.8.8,0,0,0-.74.15,34.22,34.22,0,0,1-5.42,4.91,2.12,2.12,0,0,1-1.61.52,1,1,0,0,0-.8.11c-1.47,1.13-3.63,2.59-4.86,2.78a3,3,0,0,1-1.72-.24.82.82,0,0,0-.79.06c-2,1.53-3.58,2.34-5.17,1.58a1,1,0,0,0-.81,0,6.33,6.33,0,0,1-3.51.21,3.54,3.54,0,0,1-.87-.33,6.31,6.31,0,0,1-2.49-2.48,1,1,0,0,0-.59-.55c-1.69-.49-2.32-2.12-2.83-4.62a.8.8,0,0,0-.55-.56,3,3,0,0,1-1.44-1c-.81-1-1.44-3.48-1.8-5.3a1.11,1.11,0,0,0-.53-.62,2.11,2.11,0,0,1-.86-1.46A35.61,35.61,0,0,1,19.76,90a.8.8,0,0,0-.46-.61,1,1,0,0,1-.48-.64c-.52-1.78-.07-4.93.14-6.12a2.07,2.07,0,0,0-.12-.89,3.89,3.89,0,0,1-.18-1.88c.18-1.36.43-2.74.72-4.12a.44.44,0,0,0-.37-.53c-2.78-.33-6.12-.56-7.83-1.46a2.57,2.57,0,0,1-.32-.22.45.45,0,0,0-.62.06C7.08,76.87,2.56,85.12,0,89.64"/><path class="cls-2" d="M0,84V61.49H0a5.78,5.78,0,0,1,.93,0,17.82,17.82,0,0,0,4.53.14,1.25,1.25,0,0,1,.8.29,1.7,1.7,0,0,0,1.26.49c2.11-.18,5.74-5.4,7.69-8.09,2.18-3,3.55-5.06,5.7-6.25a.52.52,0,0,1,.66.19,1.69,1.69,0,0,0,.43.41,17.72,17.72,0,0,0,5.46,1.78.42.42,0,0,1,.31.56c-1.24,3.56-2.45,7.06-3.59,9.7a81.55,81.55,0,0,0-3.84,11,.4.4,0,0,1-.56.28,38.54,38.54,0,0,1-4-1.85c-1.85-1-3.73-1.8-4.84-1.26a1.61,1.61,0,0,0-.49.34,4.43,4.43,0,0,1-.62.68C5.91,72.76,2,80.11,0,84Z"/><path class="cls-2" d="M.13,58.59H0V6A6,6,0,0,1,6,0h49a3.22,3.22,0,0,0,.29.56,8,8,0,0,0,.82.92.87.87,0,0,1,.2.79,4.38,4.38,0,0,0,0,1.8c.29,1.41,3.92,11.8,2.83,21.35a.74.74,0,0,1-.52.54,1.21,1.21,0,0,0-.68.82,8.83,8.83,0,0,1-1.61,3A6.75,6.75,0,0,0,54,31.22c-1.24,1.3-2.83.89-5.21.86a.87.87,0,0,1-.7-.41c-1.77-3.16-3.44-6.62-4.41-8.1a1.86,1.86,0,0,0-1.38-.91,4.1,4.1,0,0,1-.91-.14A12.7,12.7,0,0,0,36.48,22a17.66,17.66,0,0,1-6-.88c-1.71-.61-2.78-1.5-3.64-1.13a1.09,1.09,0,0,0-.31.18A.49.49,0,0,1,26,20c-1.56-1.48-2.32-3-3.74-2.95a1.5,1.5,0,0,1-.84-.21,4.79,4.79,0,0,0-2.7-1c-1.53-.13-4.06,1.69-4,2s1.1,0,2.23.1a6.09,6.09,0,0,1,3.35,1.57A17.77,17.77,0,0,0,25,22.37a.81.81,0,0,1,.47.62,1.84,1.84,0,0,0,.69,1.3c.58.43,7.24.21,10,.06a19.27,19.27,0,0,1,3,.1c.26,0,.46.13.44.2s0,.09,0,.13c0,1.23,1.13,3,2.6,4.56a35,35,0,0,1,2.45,2.83.31.31,0,0,1-.16.52,8.36,8.36,0,0,1-4.45.62c-2.41-.18-8.28,1.64-9,3.28-.85,1.86.52,3.67-.14,5.79-.53,1.29-1.06,2.71-1.59,4.18a.37.37,0,0,1-.56.21c-.65-.38-1.26-.76-1.84-1.17-1.73-1.19-3.52-2.16-4.68-1.74A.63.63,0,0,0,22,44a1.64,1.64,0,0,1-.66.35c-2.41.72-4.22,3.46-6.23,5.76a44.59,44.59,0,0,1-6.8,6.42c-1.61,1.14-2.33.59-3,1.7a.94.94,0,0,0-.15.32.39.39,0,0,1-.53.21C3.1,58.28,2,57.73,1,58.35A1.42,1.42,0,0,1,.13,58.59Z"/><path class="cls-2" d="M168,6V162a6,6,0,0,1-6,6H6a6,6,0,0,1-6-6V89.64c2.56-4.52,7.08-12.77,10.24-16.07a.45.45,0,0,1,.62-.06,2.57,2.57,0,0,0,.32.22c1.71.9,5.05,1.13,7.83,1.46a.44.44,0,0,1,.37.53c-.29,1.38-.54,2.76-.72,4.12a3.89,3.89,0,0,0,.18,1.88,2.07,2.07,0,0,1,.12.89c-.21,1.19-.66,4.34-.14,6.12a1,1,0,0,0,.48.64.8.8,0,0,1,.46.61,35.61,35.61,0,0,0,.81,7.25,2.11,2.11,0,0,0,.86,1.46,1.11,1.11,0,0,1,.53.62c.36,1.82,1,4.34,1.8,5.3a3,3,0,0,0,1.44,1,.8.8,0,0,1,.55.56c.51,2.5,1.14,4.13,2.83,4.62a1,1,0,0,1,.59.55,6.31,6.31,0,0,0,2.49,2.48,3.54,3.54,0,0,0,.87.33A6.33,6.33,0,0,0,36,113.9a1,1,0,0,1,.81,0c1.59.76,3.13,0,5.17-1.58a.82.82,0,0,1,.79-.06,3,3,0,0,0,1.72.24c1.23-.19,3.39-1.65,4.86-2.78a1,1,0,0,1,.8-.11,2.12,2.12,0,0,0,1.61-.52,34.22,34.22,0,0,0,5.42-4.91A.8.8,0,0,1,58,104a1,1,0,0,0,.78-.15c1.58-1,3.32-3.66,4-4.68a2.15,2.15,0,0,1,.68-.59,3.81,3.81,0,0,0,1.38-1.28c.77-1.14,1.5-2.34,2.19-3.57a.43.43,0,0,1,.62-.15c2.31,1.59,5,3.63,6.84,4.09a1.74,1.74,0,0,0,.39,0,.46.46,0,0,1,.42.45c.19,4.68-2,14.15-3.06,19.14-.69,3.24-2.8,7.37-2.08,10.26a1,1,0,0,0,.58.68,1.72,1.72,0,0,1,.68.57,16.91,16.91,0,0,0,3.88,3.94,5.07,5.07,0,0,1,.67.64c.78.9,2,1.33,2.35,2.49.68,1.95-.37,2.94,0,3.11s2.22-2,1.58-4.64a5.19,5.19,0,0,0-1.95-3.08,1.43,1.43,0,0,1-.42-.76c-.24-1.2-1.54-1.6-3.06-2.4-.24-.12-.24-.33,0-.51a1.38,1.38,0,0,0,.41-.65c.27-1.2-.41-1.72-.44-3.69a39.51,39.51,0,0,1,1.2-8.66c.76-3.27,3.64-13.38,2.43-18.91a5.66,5.66,0,0,1,0-.92,1.31,1.31,0,0,0-.13-.58c-.47-1.14-2.4-1.79-4.45-2.26a40.09,40.09,0,0,1-4.23-1.27.41.41,0,0,1-.24-.58,82.79,82.79,0,0,0,4.39-10.77c.89-2.73,2.3-6.15,3.74-9.64a.42.42,0,0,1,.59-.22,17.8,17.8,0,0,0,5.28,2.29,1.91,1.91,0,0,0,.59,0,.53.53,0,0,1,.63.29c.81,2.32.49,4.77.13,8.46-.33,3.31-1.07,9.62.39,11.16a1.47,1.47,0,0,0,.8.41V86.93a6,6,0,0,1,1.87-4.35c-.15-1.63-.23-3.45-.23-5.18,0-3.05.48-6.3-.85-8.44a1.7,1.7,0,0,1-.25-.7.66.66,0,0,0-.07-.3c-.59-1.08-2.56-1.54-4.66-1.79-.7-.09-1.4-.2-2.14-.35a.39.39,0,0,1-.3-.53c.58-1.45,1.12-2.87,1.58-4.19.91-2,3.13-2.47,3.74-4.42.52-1.72-2.67-7-4.59-8.44a8.3,8.3,0,0,1-2.93-3.41.31.31,0,0,1,.23-.49,32.61,32.61,0,0,1,3.71-.5c2.09-.15,4.16-.76,5-1.69a1,1,0,0,0,.08-.11s.24,0,.46.15a18.64,18.64,0,0,1,2.35,1.94c2,1.95,6.83,6.55,7.55,6.6a1.84,1.84,0,0,0,1.38-.51.78.78,0,0,1,.77-.16,17.61,17.61,0,0,0,5.41,1,6,6,0,0,1,3.54,1c.92.68,1.47,1.59,1.75,1.4s-.42-3.23-1.65-4.15a4.84,4.84,0,0,0-2.71-1,1.44,1.44,0,0,1-.77-.4c-1-1-2.62-.35-4.76-.26a.51.51,0,0,1-.51-.34,1.23,1.23,0,0,0-.11-.34c-.4-.84-1.8-.89-3.49-1.57a17.77,17.77,0,0,1-5-3.28,12.48,12.48,0,0,0-4-2.85,4.59,4.59,0,0,1-.79-.5,1.82,1.82,0,0,0-1.62-.23c-1.71.46-5.26,2-8.67,3.15a.91.91,0,0,1-.81-.16C72,40,70.54,39.25,70.49,37.46a6.88,6.88,0,0,0-.8-2.64,8.81,8.81,0,0,1,.78-3.3,1.23,1.23,0,0,0,0-1.06.77.77,0,0,1,0-.76C76,21.83,85.58,16.45,86.74,15.59a4.11,4.11,0,0,0,1.16-1.37.89.89,0,0,1,.67-.46,8,8,0,0,0,1.23-.15A19.37,19.37,0,0,0,94.11,11c.45-.33,1.11-.62,1.35-1.08A.61.61,0,0,1,96,9.51,7.24,7.24,0,0,0,98,9c1.84-.74,4.88-1.7,6.25-2.67a1.42,1.42,0,0,0-.92-2.63c-1.26,0-5.87,2.2-6.85,2.7A4.36,4.36,0,0,0,95.06,7.8.53.53,0,0,1,94.4,8a1.76,1.76,0,0,0-1-.09,29.27,29.27,0,0,0-4.75,2.75,2.89,2.89,0,0,0-1.32,1.5.72.72,0,0,1-.61.43c-1.93.09-4.82,2.59-7.93,5.52C75.08,21.59,71,25.84,69,29.77l-.12.22a.57.57,0,0,1-.55.31c-.27,0-.43-.34-.26-1,.25-1-.74-2.49-2.59-3.14l-.07,0a.09.09,0,0,1-.06,0c-1.82-.74-3.56-.26-4,.64-.32.62-.64.73-.87.59a.61.61,0,0,1-.22-.61l.07-.24c1-4.31.82-10.18.35-15.27-.39-4.25-.89-8-2.27-9.38a.72.72,0,0,1-.18-.73A2.28,2.28,0,0,0,58.33,0H162A6,6,0,0,1,168,6Z"/><path class="cls-3" d="M92.68,75.93H91.42a6,6,0,0,0-6,6V126c0,5.51-.91,10.29-7,10.29h-.06a6,6,0,0,0-6,6v.87a6,6,0,0,0,5.61,6c1,.06,2,.08,2.71.08,13.45,0,18-7.57,18-24.18V81.93A6,6,0,0,0,92.68,75.93Z"/><path class="cls-3" d="M117.18,127a6.06,6.06,0,0,1,5.53,3.7c2.06,4.64,6,6.73,11.81,6.73,7.08,0,10.11-3.29,10.11-8.58,0-5.87-3-8.42-13.45-11.3-16.7-4.61-20.83-11.76-20.83-21.51,0-12.58,8-21.13,22.52-21.13,11.85,0,18.51,5.45,21.61,12.48A6,6,0,0,1,149,95.75h-1.42a5.81,5.81,0,0,1-5.33-3.68c-1.29-3.07-4-5.59-9.68-5.59-5.39,0-8.64,2.62-8.64,7.74s2.61,7.06,12.52,9.77c17.85,4.94,21.76,12.76,21.76,22.94,0,13.18-8.47,22.23-24.69,22.23-12,0-19.63-5.36-23.17-13.85a6,6,0,0,1,5.54-8.34Z"/><path class="cls-3" d="M42.5,138.65c.93,4.15,1.44,6.52,1.64,7.8h0c.22-1.15.51-2.78,1.77-7.8h2.67c1.17,5.09,1.52,6.58,1.67,7.7h0c.21-1.07.53-2.62,1.73-7.7h2.84L51.8,149H48.73c-.86-3.93-1.35-6-1.58-7.36h0c-.17,1.3-.73,3.65-1.64,7.36H42.41l-2.94-10.35Z"/><path class="cls-3" d="M55.79,138.65h1.6v-2.81h2.86v2.81h2v2.15h-2v5.11c0,.79.24,1.09,1.1,1.09a5.09,5.09,0,0,0,.65,0v2a6.64,6.64,0,0,1-1.93.2c-2,0-2.68-1.08-2.68-2.89V140.8h-1.6Z"/><path class="cls-3" d="M63.88,149v-8.2H62.37v-2.15h1.51v-.91c0-2.14,1.06-3.54,3.3-3.54a6,6,0,0,1,1.34.12v2.26a4.84,4.84,0,0,0-.61-.05c-.85,0-1.16.32-1.16,1.42v.7h1.81v2.15H66.75V149Z"/><path class="cls-1" d="M12,34.74l-.23-3.41V29.77H14v1.58l-.22,3.39Zm3.39,0-.22-3.41V29.77H17.4v1.58l-.25,3.39Z"/><path class="cls-1" d="M17.17,29.77H19.6v4.54a2.74,2.74,0,0,1,2.52-1.14c2.39,0,3.59,2,3.59,4.45s-1.3,4.76-3.83,4.76a2.4,2.4,0,0,1-2.31-1,4.9,4.9,0,0,1-.09.83H17.15c0-1,0-1.92,0-2.87Zm6.07,7.89c0-1.46-.55-2.54-1.86-2.54s-1.89.91-1.89,2.7c0,1.48.44,2.62,1.86,2.62C22.59,40.44,23.24,39.33,23.24,37.66Z"/><path class="cls-1" d="M24.64,34.74l-.24-3.41V29.77h2.19v1.58l-.22,3.39Zm3.39,0-.22-3.41V29.77H30v1.58l-.25,3.39Z"/><path class="cls-2" d="M37.09,32.58v3.75h3.68v2H37.09v3.8h-2v-3.8H31.33v-2h3.72V32.58Z"/><path class="cls-2" d="M42.34,34.74l-.24-3.41V29.77h2.18v1.58l-.22,3.39Zm3.39,0-.22-3.41V29.77h2.18v1.58l-.25,3.39Z"/><path class="cls-2" d="M54.09,39.9a19.84,19.84,0,0,0,.12,2.27H51.88a3.72,3.72,0,0,1-.12-.86,2.58,2.58,0,0,1-2.47,1.07,2.73,2.73,0,0,1-3-2.76c0-2,1.61-2.93,4.19-2.93h1.26v-.54c0-.62-.23-1.24-1.36-1.24S49.11,35.35,49,36H46.68c.13-1.57,1.1-2.83,3.77-2.82,2.36,0,3.64.94,3.64,3Zm-2.37-1.73h-1c-1.47,0-2,.45-2,1.29A1.13,1.13,0,0,0,50,40.64c1.55,0,1.74-1.08,1.74-2.24Z"/><path class="cls-2" d="M53.44,34.74l-.24-3.41V29.77h2.19v1.58l-.23,3.39Zm3.39,0-.22-3.41V29.77h2.18v1.58l-.25,3.39Z"/><path class="cls-2" d="M65.89,32.58v3.75h3.67v2H65.89v3.8h-2v-3.8H60.13v-2h3.71V32.58Z"/><path class="cls-1" d="M77.14,32.58v3.75h3.68v2H77.14v3.8h-2v-3.8H71.38v-2H75.1V32.58Z"/><path class="cls-1" d="M80.74,34.74l-.24-3.41V29.77h2.19v1.58l-.23,3.39Zm3.39,0-.22-3.41V29.77h2.18v1.58l-.25,3.39Z"/><path class="cls-1" d="M92.49,39.9a19.84,19.84,0,0,0,.12,2.27H90.29a3.7,3.7,0,0,1-.13-.86,2.57,2.57,0,0,1-2.47,1.07,2.73,2.73,0,0,1-3-2.76c0-2,1.61-2.93,4.19-2.93h1.26v-.54c0-.62-.23-1.24-1.36-1.24s-1.25.44-1.36,1.08H85.08c.13-1.57,1.1-2.83,3.78-2.82,2.35,0,3.63.94,3.63,3Zm-2.37-1.73h-1c-1.47,0-2,.45-2,1.29a1.13,1.13,0,0,0,1.26,1.18c1.55,0,1.74-1.08,1.74-2.24Z"/><path class="cls-1" d="M91.84,34.74l-.24-3.41V29.77h2.19v1.58l-.22,3.39Zm3.39,0L95,31.33V29.77H97.2v1.58l-.26,3.39Z"/><path class="cls-1" d="M104.29,32.58v3.75H108v2h-3.68v3.8h-2v-3.8H98.53v-2h3.72V32.58Z"/><path class="cls-1" d="M109.53,34.74l-.23-3.41V29.77h2.18v1.58l-.22,3.39Zm3.4,0-.22-3.41V29.77h2.18v1.58l-.25,3.39Z"/><path class="cls-1" d="M121.29,39.9a19.84,19.84,0,0,0,.12,2.27h-2.33a3.72,3.72,0,0,1-.12-.86,2.58,2.58,0,0,1-2.47,1.07,2.73,2.73,0,0,1-3-2.76c0-2,1.61-2.93,4.19-2.93h1.26v-.54c0-.62-.23-1.24-1.36-1.24s-1.25.44-1.36,1.08h-2.32c.13-1.57,1.1-2.83,3.77-2.82,2.36,0,3.64.94,3.64,3Zm-2.37-1.73h-1c-1.46,0-2,.45-2,1.29a1.13,1.13,0,0,0,1.27,1.18c1.55,0,1.74-1.08,1.74-2.24Z"/><path class="cls-1" d="M120.64,34.74l-.24-3.41V29.77h2.18v1.58l-.22,3.39Zm3.39,0-.22-3.41V29.77H126v1.58l-.25,3.39Z"/><path class="cls-1" d="M124.5,44.14a14.9,14.9,0,0,0,1.25-5h2.48a9.41,9.41,0,0,1-1.85,5Zm1.18-7.7v-3h2.62v3Z"/></g></g></g></svg>