<svg width="3384" height="2935" viewBox="0 0 3384 2935" fill="none" xmlns="http://www.w3.org/2000/svg">
<path fill-rule="evenodd" clip-rule="evenodd" d="M1656.51 1.57944C1238.72 15.7244 844.709 183.169 553.127 470.488C368.111 652.798 236.398 866.609 159.478 1109.5C122.754 1225.47 101.292 1343 92.8248 1474.5C90.4068 1512.05 90.4098 1610.28 92.8288 1647C97.1028 1711.87 102.501 1759.16 112.005 1815C148.38 2028.73 231.419 2233.27 355.634 2415.1C396.603 2475.07 440.743 2531 489.853 2585.17C497.912 2594.05 504.506 2601.59 504.506 2601.91C504.506 2602.24 391.044 2602.61 252.367 2602.75L0.227753 2603L15.6168 2616.63C24.0808 2624.13 47.6558 2644.34 68.0058 2661.54C118.308 2704.06 131.862 2715.91 146.651 2730.29C162.583 2745.78 163.952 2748.41 163.962 2763.5C163.968 2772.95 163.692 2774.57 161.194 2779.69C157.962 2786.32 146.249 2797.35 104.006 2833.58C44.2578 2884.83 27.9098 2899.22 10.5058 2915.9L1.00577 2925L261.506 2925.7C404.781 2926.09 660.878 2926.54 830.61 2926.7L1139.21 2927L1139.85 2910.5C1140.2 2901.43 1140.79 2869.89 1141.16 2840.42L1141.83 2786.84L1494.92 2786.17C1689.12 2785.8 1933.16 2785.5 2037.25 2785.5H2226.49L2226.75 2856.25L2227.01 2927L2362.01 2927.66C2436.26 2928.02 2554.16 2928.82 2624.01 2929.43C2873.34 2931.61 3276.28 2934.44 3342.88 2934.48C3381.32 2934.5 3384.64 2934.37 3383.41 2932.89C3381.74 2930.88 3349.87 2900.57 3311.01 2864.04C3282.25 2837.01 3273.36 2828.48 3249.76 2805.19C3227.89 2783.62 3227.47 2783.13 3225.51 2776.77C3222.06 2765.62 3223.31 2752.74 3228.91 2741.69C3232.09 2735.41 3249.49 2719.64 3325.08 2654.53C3358.92 2625.38 3383.51 2603.44 3383.51 2602.38C3383.51 2601.88 3285.52 2601.5 3156.38 2601.5H2929.26L2950.16 2580.19C3054.14 2474.16 3141.05 2345.05 3205.86 2200.38C3242.92 2117.64 3274.03 2025.68 3295.47 1935.5C3315.58 1850.93 3328.93 1761.99 3334.97 1672.5C3339.55 1604.49 3339.75 1525.58 3335.49 1461C3323.9 1285.18 3281.01 1110.86 3210 951.003C3197.47 922.786 3193.91 915.257 3178.73 884.915C3084.65 696.823 2952.12 529.002 2787.51 389.52C2628.61 254.883 2441.24 150.222 2241.51 84.5274C2054.34 22.9674 1855.89 -5.17056 1656.51 1.57944ZM1754.29 47.5454C1766.92 48.9004 1780.13 51.7344 1792.81 55.8124C1804.95 59.7144 1804.01 57.1944 1803 83.2534C1802.17 104.46 1802.39 104.167 1792.69 97.5504C1782.16 90.3634 1769.77 84.9344 1757.01 81.9124C1747.46 79.6544 1728.83 79.6224 1721.54 81.8524C1710.41 85.2554 1704.58 91.7744 1705.99 99.2514C1707.31 106.284 1714.52 110.468 1732.5 114.621C1765.88 122.335 1777.23 126.176 1787.97 133.392C1801.03 142.165 1807.25 152.842 1808.25 168.211C1809.33 184.872 1804.58 197.672 1793.1 209.003C1782.3 219.663 1771.94 224.922 1753.41 229.158C1742.99 231.54 1709.74 231.532 1696.77 229.146C1685.98 227.16 1673.35 223.612 1663.21 219.718L1656.01 216.953L1655.74 195.228L1655.47 173.503H1658.17C1659.76 173.503 1663.76 175.494 1667.94 178.375C1688.49 192.539 1713.95 199.626 1736.29 197.399C1752.57 195.777 1760.5 190.401 1760.5 181.003C1760.49 176.282 1758.09 172.251 1753.39 169.102C1748.76 165.99 1745.64 165.019 1725.72 160.473C1691.75 152.721 1676.67 145.518 1667.05 132.453C1660.57 123.653 1658.21 114.856 1658.66 101.144C1659 90.7764 1659.27 89.4834 1662.63 82.5034C1671.48 64.0824 1692.6 51.0424 1719.1 47.6424C1728.96 46.3764 1743.04 46.3384 1754.29 47.5454ZM1901.51 61.0054C1925.98 64.0314 1948.41 66.7884 1951.34 67.1314C1956.67 67.7544 1956.68 67.7614 1956.14 70.8794C1955.85 72.5975 1955.34 76.2534 1955.02 79.0034C1954.7 81.7534 1953.94 87.5324 1953.33 91.8464L1952.23 99.6894L1948.12 99.1364C1935.06 97.3814 1924.37 96.3054 1923.97 96.7064C1923.72 96.9594 1921.28 115.129 1918.55 137.085C1912.98 181.983 1910.66 200.326 1909.9 205.615C1909.29 209.855 1908.79 209.673 1926.07 211.597C1932.08 212.266 1937.34 213.097 1937.74 213.443C1938.5 214.09 1934.97 243.367 1934.03 244.315C1933.51 244.828 1915.6 242.924 1893.01 239.954C1886.96 239.159 1870.53 237.108 1856.51 235.397C1842.48 233.685 1830.9 232.188 1830.77 232.07C1830.39 231.737 1834.35 201.323 1834.83 200.843C1835.07 200.609 1841.39 201.182 1848.89 202.116C1856.39 203.05 1862.74 203.607 1862.99 203.354C1863.24 203.1 1864.6 193.693 1866.01 182.448C1874.62 113.843 1877.36 91.0264 1877.05 90.7124C1876.85 90.5184 1870.69 89.6464 1863.35 88.7764C1856.01 87.9054 1849.68 86.9114 1849.28 86.5674C1848.87 86.2244 1849.2 80.5564 1850 73.9734C1852.21 55.7304 1852.27 55.5034 1854.8 55.5034C1856.01 55.5034 1877.03 57.9794 1901.51 61.0054ZM1565.71 58.6164C1574.37 60.4344 1584.95 65.8604 1591 71.5904C1600.44 80.5174 1604.51 91.4524 1604.51 107.929C1604.51 126.168 1597.5 139.627 1581.83 151.489L1575.44 156.331L1598.2 179.667C1610.72 192.502 1625.9 208.066 1631.93 214.253C1637.96 220.441 1642.49 225.503 1641.99 225.503C1641.5 225.503 1635.45 226.178 1628.55 227.004C1621.65 227.829 1612.41 228.935 1608.01 229.462C1603.61 229.989 1596.86 230.681 1593.01 231L1586.01 231.581L1558.59 201.98L1531.18 172.379L1524.59 172.991C1514.67 173.912 1510.51 174.607 1510.51 175.342C1510.51 175.707 1511.41 183.88 1512.52 193.504C1513.63 203.129 1514.99 215.278 1515.53 220.503C1516.08 225.728 1516.8 232.14 1517.14 234.753C1517.48 237.366 1517.59 239.503 1517.38 239.503C1517.18 239.503 1507.11 240.625 1495.01 241.997C1482.91 243.369 1472.7 244.494 1472.33 244.497C1471.95 244.5 1471.37 241.916 1471.04 238.753C1470.7 235.59 1470.01 229.403 1469.51 225.003C1467.93 211.324 1460.56 144.874 1457.03 112.503C1456.15 104.528 1454.78 92.5844 1453.97 85.9604C1453.17 79.3374 1452.51 72.3524 1452.51 70.4394V66.9604L1478.26 64.1644C1492.42 62.6264 1509.41 60.7304 1516.01 59.9504C1533.8 57.8494 1533.97 57.8364 1547.71 57.6634C1554.69 57.5754 1562.79 58.0044 1565.71 58.6164ZM2019.18 79.1224C2047.9 85.8144 2076 92.3494 2109.01 100.008C2124.96 103.71 2140.26 107.268 2143.01 107.916C2148.86 109.295 2148.77 107.305 2143.92 128.151L2140.39 143.299L2134.2 141.86C2130.79 141.068 2122.38 139.091 2115.51 137.466C2088.51 131.087 2086.37 130.681 2085.97 131.863C2085.75 132.49 2083.99 139.978 2082.05 148.503C2080.11 157.028 2076.04 174.578 2073.02 187.503C2069.99 200.428 2065.27 220.678 2062.53 232.503C2055.72 261.85 2053.84 269.502 2053.31 270.032C2053.06 270.281 2050.42 269.858 2047.43 269.091C2044.45 268.324 2034.58 266.022 2025.51 263.975C2016.43 261.928 2008.89 260.162 2008.76 260.049C2008.62 259.937 2011.21 248.18 2014.51 233.924C2024.33 191.491 2030.19 166.257 2035.5 143.581C2038.25 131.798 2040.51 121.668 2040.51 121.069C2040.51 120.469 2036.12 118.976 2030.76 117.751C1997.81 110.227 1988.08 107.725 1987.74 106.694C1987.52 106.057 1988.96 98.6054 1990.93 90.1344C1992.9 81.6634 1994.51 74.4074 1994.51 74.0094C1994.51 73.6114 1995.59 73.5604 1996.93 73.8944C1998.26 74.2284 2008.27 76.5804 2019.18 79.1224ZM1394.79 94.2534C1396.84 102.915 1398.51 110.512 1398.51 111.134C1398.51 112.205 1392.07 113.899 1340.03 126.534C1328.49 129.335 1318.91 131.763 1318.75 131.93C1318.3 132.376 1325.07 159.405 1325.82 160.15C1326.5 160.831 1326.51 160.829 1369.46 150.367C1385.11 146.555 1398.56 143.563 1399.36 143.719C1400.32 143.909 1401.92 148.64 1404.19 158.003C1406.06 165.703 1407.68 173.107 1407.79 174.455C1408.04 177.255 1411.51 176.203 1362.01 188.311C1346.61 192.078 1334.07 195.574 1334.14 196.081C1334.36 197.576 1343.79 236.979 1343.99 237.258C1344.1 237.397 1345.49 237.1 1347.09 236.597C1348.7 236.094 1362.61 232.658 1378.01 228.961C1393.41 225.264 1410.06 221.249 1415.01 220.038C1421.7 218.4 1424.19 218.138 1424.72 219.013C1426.26 221.562 1432.69 250.713 1431.87 251.456C1431.08 252.181 1414.38 256.319 1340.51 274.107C1325.93 277.616 1312.52 280.907 1310.7 281.42C1308.33 282.088 1307.28 282.019 1307.02 281.178C1306.81 280.532 1305.96 277.078 1305.13 273.503C1304.29 269.928 1301.58 258.678 1299.11 248.503C1296.64 238.328 1292.77 222.353 1290.5 213.003C1288.24 203.653 1284.15 186.778 1281.42 175.503C1278.68 164.228 1273.93 144.744 1270.86 132.205C1267.78 119.665 1265.48 109.19 1265.75 108.926C1266.23 108.445 1280.99 104.78 1344.01 89.5004C1362.71 84.9664 1380.26 80.6664 1383.01 79.9454C1391.38 77.7494 1390.69 76.9054 1394.79 94.2534ZM1520.01 93.0084C1519.46 93.1994 1515.61 93.6434 1511.46 93.9964C1507.31 94.3484 1503.41 94.9464 1502.8 95.3244C1501.99 95.8214 1502.34 101.855 1504.06 117.008C1505.36 128.555 1506.45 138.79 1506.47 139.753C1506.52 141.979 1510.37 142.038 1524.58 140.032C1540.2 137.827 1544.84 136.155 1550.48 130.696C1556.24 125.114 1558.03 119.879 1557.13 111.228C1556.46 104.807 1554.86 101.091 1551.34 97.8014C1546.96 93.7154 1542.28 92.4984 1531.29 92.5824C1525.63 92.6254 1520.56 92.8174 1520.01 93.0084ZM2195.51 123.493C2197.88 124.233 2225.85 134.636 2226.14 134.885C2226.22 134.95 2228.38 148.503 2230.95 165.003C2235.91 196.849 2238.28 210.612 2238.93 211.26C2239.15 211.479 2251.98 200.486 2267.44 186.831C2282.91 173.175 2296.16 161.87 2296.89 161.707C2297.62 161.545 2304.47 163.715 2312.11 166.531C2319.75 169.346 2329.95 173.079 2334.77 174.826C2339.58 176.574 2343.54 178.368 2343.56 178.814C2343.59 179.411 2274.84 235.169 2247.64 256.607C2245.95 257.94 2242.88 264.96 2236.87 281.237C2232.25 293.758 2226.85 308.368 2224.88 313.704L2221.29 323.405L2215.15 321.102C2211.77 319.835 2201.95 316.204 2193.33 313.032L2177.64 307.266L2178.65 304.635C2179.2 303.187 2182.13 295.253 2185.17 287.003C2188.2 278.753 2192.97 265.799 2195.77 258.217C2200.86 244.437 2200.86 244.428 2199.69 238.217C2197.93 228.923 2194.08 208.602 2189.5 184.503C2187.26 172.678 2184.28 156.928 2182.89 149.503C2181.5 142.078 2179.75 132.853 2179 129.003C2178.24 125.153 2177.44 120.802 2177.22 119.335L2176.81 116.667L2184.91 119.69C2189.36 121.353 2194.13 123.064 2195.51 123.493ZM1217.97 168.253C1219.89 286.418 1220.15 311.059 1219.51 311.793C1219.13 312.228 1208.3 316.618 1195.44 321.548L1172.06 330.513L1169.88 328.258C1164.4 322.577 1047.48 187.196 1047.79 186.887C1047.98 186.695 1058.21 182.683 1070.53 177.971C1092.53 169.554 1092.95 169.44 1094.46 171.403C1100.74 179.539 1176.17 269.394 1176.76 269.442C1177.18 269.476 1177.3 266.465 1177.03 262.753C1176.75 259.041 1176.04 239.803 1175.45 220.003C1174.85 200.203 1173.98 174.103 1173.51 162.003C1173.04 149.903 1173.02 139.629 1173.46 139.172C1174.37 138.239 1214.38 122.656 1216.11 122.563C1216.9 122.52 1217.44 135.833 1217.97 168.253ZM1021.04 220.656L1027.48 233.309L1014.55 239.979L1001.63 246.648L1003.92 250.826C1005.18 253.123 1010.86 264.003 1016.56 275.003C1022.25 286.003 1030.2 301.303 1034.21 309.003C1038.23 316.703 1044.33 328.515 1047.76 335.252C1051.2 341.989 1054.41 347.501 1054.9 347.502C1055.39 347.502 1061.35 344.575 1068.13 340.996L1080.46 334.488L1083.11 339.746C1084.56 342.637 1087.72 348.664 1090.13 353.138C1092.54 357.613 1094.51 361.741 1094.51 362.313C1094.51 362.885 1088.77 366.372 1081.76 370.063C1056.14 383.543 1050.71 386.383 1035.01 394.499C1026.21 399.047 1015.31 404.74 1010.79 407.151L1002.57 411.534L1001.16 409.268C999.071 405.912 987.5 383.168 987.772 382.95C987.901 382.847 993.759 379.732 1000.79 376.028C1009.65 371.361 1013.31 368.942 1012.69 368.148C1012.21 367.518 1007.18 358.003 1001.52 347.003C995.858 336.003 989.324 323.403 986.999 319.003C984.674 314.603 979.044 303.803 974.489 295.003C964.507 275.721 961.558 270.253 960.582 269.221C960.175 268.791 954.169 271.401 947.235 275.02C935.773 281.003 934.544 281.437 933.698 279.802C933.186 278.812 929.973 272.71 926.558 266.24C923.142 259.771 920.504 254.008 920.696 253.434C920.887 252.86 928.01 248.787 936.525 244.382C945.039 239.978 957.406 233.533 964.006 230.06C970.606 226.587 983.656 219.799 993.006 214.975C1002.36 210.152 1010.45 205.806 1010.99 205.318C1012.35 204.098 1013.55 205.926 1021.04 220.656ZM2505.26 266.015C2524.56 269.677 2541.83 278.226 2560.29 293.257C2572.48 303.179 2588.39 322.75 2587.07 326.189C2586.2 328.462 2567.45 359.759 2566.05 361.288C2565.09 362.325 2564.35 362.166 2562.18 360.465C2560.71 359.306 2559.51 357.738 2559.51 356.98C2559.51 354.203 2551.52 337.287 2546.98 330.469C2532.29 308.367 2505.5 299.849 2483.98 310.441C2464.15 320.204 2445.61 350.142 2445.52 372.543C2445.5 378.591 2447.96 387.731 2451.23 393.737C2454.75 400.207 2466.05 410.739 2473.51 414.503C2482.83 419.211 2489.39 420.51 2503.47 420.443C2510.36 420.411 2518.24 420.017 2520.97 419.569C2525.7 418.794 2529.51 419.757 2529.51 421.727C2529.51 422.532 2512.42 451.357 2509.44 455.579C2507.66 458.095 2507.45 458.136 2500.31 457.327C2482.59 455.32 2466.04 450.228 2452.05 442.476C2420.38 424.934 2403.04 402.125 2399.42 373.282C2396.67 351.357 2406.08 323.358 2424.13 299.804C2444.72 272.915 2475.05 260.285 2505.26 266.015ZM1770.51 266.498C1993.73 276.709 2200.69 336.521 2392.51 446.259C2412.52 457.708 2433.72 470.623 2433.26 471.083C2433.07 471.269 2427.09 469.168 2419.96 466.415C2375.59 449.277 2326.07 435.126 2294.07 430.441C2280.99 428.525 2271.08 428.497 1695.39 428.748L1110.01 429.003L1099.94 431.693C1024.58 451.831 938.786 522.921 903.131 594.764C892.943 615.293 886.955 635.04 884.549 656.044C883.88 661.882 883.52 735.842 883.514 868.342L883.506 1071.68L871.898 1065.53C800.652 1027.79 716.199 946.557 622.251 825.412L615.589 816.822L631.582 795.558C669.027 745.769 706.55 702.502 750.006 659.004C899.111 509.757 1078.81 399.636 1282.51 332.681C1396.59 295.182 1523.52 272.098 1646.01 266.577C1671.5 265.427 1746.07 265.38 1770.51 266.498ZM879.76 301.061C886.528 310.929 909.04 343.584 929.786 373.628C950.532 403.671 967.506 428.687 967.506 429.219C967.506 430.106 934.949 453.012 932.174 454.077C931.506 454.333 926.919 452.791 921.982 450.649C912.014 446.325 893.509 438.232 880.506 432.51C860.927 423.893 845.399 417.089 836.006 413.011C830.506 410.623 820.851 406.382 814.551 403.586C808.251 400.791 802.73 398.503 802.283 398.503C801.836 398.503 805.282 404.015 809.941 410.753C870.772 498.724 870.039 497.623 868.424 498.542C867.644 498.985 859.816 504.326 851.027 510.411C838.553 519.048 834.795 521.203 833.893 520.239C832.759 519.025 817.909 497.594 775.526 436.003C763.793 418.953 750.282 399.378 745.5 392.503C740.719 385.628 736.043 378.813 735.11 377.358L733.414 374.714L756.042 359.033L778.671 343.352L782.338 344.86C784.356 345.69 808.932 356.06 836.954 367.905C864.975 379.75 888.027 389.315 888.181 389.162C888.334 389.008 883.833 382.16 878.177 373.943C872.522 365.726 859.932 347.44 850.2 333.308C840.468 319.176 832.53 307.251 832.56 306.808C832.618 305.949 866.684 282.348 867.168 282.831C867.325 282.989 872.992 291.192 879.76 301.061ZM2662.49 376.035C2669.12 376.743 2681.41 380.944 2689.47 385.259C2712.78 397.736 2733.93 420.336 2741.23 440.588C2751.7 469.594 2745.45 499.311 2722.97 527.503C2691.61 566.838 2649.47 577.112 2610.02 555.048C2595.79 547.088 2577.64 531.024 2569.71 519.363C2555.1 497.859 2551.43 471.375 2559.71 447.003C2567.99 422.601 2589.71 396.834 2612.64 384.223C2619.57 380.407 2632.54 376.398 2640.74 375.539C2647.74 374.803 2651.82 374.896 2662.49 376.035ZM2652.51 417.111C2630.86 422.927 2605.65 450.766 2599.9 475.192C2595.37 494.468 2604.16 512.792 2622.2 521.676C2628.43 524.739 2629.72 525.003 2638.48 525.003C2649.2 525.003 2654.38 523.492 2663.48 517.718C2674.39 510.788 2689.93 493.502 2695.99 481.526C2703.24 467.236 2704.61 449.928 2699.31 439.726C2695.22 431.848 2691.64 427.812 2684.51 423.049C2673.66 415.808 2664.02 414.019 2652.51 417.111ZM705.023 450.073C742.928 490.284 759.289 508.115 762.741 512.977C777.395 533.618 779.172 555.467 767.992 577.53C761.759 589.83 742.017 611.328 728.564 620.463C697.458 641.587 668.11 640.169 643.43 616.35C639.813 612.859 629.709 602.353 620.976 593.003C588.451 558.178 576.82 545.793 569.264 537.935C564.997 533.497 561.506 529.645 561.506 529.374C561.506 528.637 594.527 498.003 595.321 498.003C595.698 498.003 606.55 509.253 619.437 523.003C676.775 584.182 676.651 584.055 683.506 588.469C696.823 597.043 709.225 594.11 723.308 579.055C737.091 564.321 735.467 550.973 717.561 531.826C707.493 521.06 698.053 510.995 690.972 503.474C687.104 499.365 676.786 488.353 668.044 479.003C659.301 469.653 650.102 459.859 647.601 457.239L643.053 452.475L654.03 442.172C660.067 436.505 667.706 429.316 671.006 426.196L677.006 420.523L683.506 427.333C687.081 431.078 696.764 441.311 705.023 450.073ZM2844.98 526.183C2854.62 537.006 2862.51 546.417 2862.51 547.096C2862.51 547.774 2853.71 567.768 2842.95 591.526C2832.19 615.284 2823.53 634.843 2823.7 634.989C2823.87 635.135 2833.91 632.119 2846.01 628.286C2858.11 624.454 2871.38 620.276 2875.51 619.002C2879.63 617.729 2890.21 614.397 2899.01 611.598C2907.81 608.799 2915.28 606.508 2915.62 606.506C2916.42 606.502 2951.84 646.525 2951.37 646.898C2951.17 647.054 2944.45 652.992 2936.43 660.093C2928.41 667.193 2914.69 679.303 2905.93 687.003C2897.17 694.703 2887.53 703.27 2884.51 706.041C2881.48 708.812 2875.41 714.237 2871.01 718.097C2866.61 721.957 2852.94 734.047 2840.63 744.965L2818.26 764.815L2814.12 760.409C2801.37 746.847 2787.38 730.238 2788.14 729.557C2788.61 729.126 2799.58 719.428 2812.51 708.007C2825.43 696.585 2837.58 685.829 2839.51 684.103C2841.43 682.378 2848.86 675.8 2856.01 669.487C2873.33 654.192 2875.48 652.098 2873.07 652.92C2857.09 658.374 2798.73 677.737 2797.93 677.85C2797.34 677.934 2792.08 672.64 2786.25 666.086L2775.65 654.169L2778.46 648.586C2780.01 645.515 2782.85 639.628 2784.77 635.503C2790.32 623.599 2795.79 612.006 2802.48 598.003C2805.89 590.853 2809.12 583.885 2809.66 582.518L2810.63 580.033L2808.32 582.122C2804.97 585.141 2726.31 654.569 2724.39 656.196C2722.97 657.405 2721.18 655.751 2708.89 641.894C2701.26 633.276 2695.01 625.693 2695.01 625.042C2695.01 624.18 2825.79 506.993 2827.23 506.568C2827.35 506.532 2835.34 515.359 2844.98 526.183ZM2316.01 509.832C2354.44 518.621 2388.41 536.529 2417.83 563.502C2429.02 573.76 2443.31 591.99 2451.3 606.207C2455.98 614.52 2462.06 627.748 2463.04 631.753L2463.72 634.503L2456.36 634.539C2422.03 634.705 2380.96 668.891 2374.08 703.038C2371.16 717.564 2367.88 1085.61 2369.53 1215C2370.59 1298.02 2371.53 1323.08 2374.01 1333.5C2378.07 1350.53 2385.57 1363.68 2399.17 1377.61C2408.17 1386.81 2412.85 1390.68 2441.22 1412.31C2462.1 1428.23 2481.51 1444.45 2481.5 1445.97C2481.47 1449 2475.92 1468.2 2472.82 1476C2459.94 1508.36 2438.85 1539.36 2411.89 1565.54C2384.95 1591.7 2359.51 1607.36 2333.13 1614.01L2323.25 1616.5H2000.97H1678.7L1678.07 1606.25C1677.54 1597.63 1675.53 1545.77 1675.51 1540.25C1675.51 1538.6 1679.65 1538.5 1748.53 1538.5H1821.56L1822.42 1540.79C1824.96 1547.47 1834.9 1557.69 1844.76 1563.75C1855.97 1570.64 1865.75 1573.86 1876.8 1574.3C1896.24 1575.08 1907.87 1571.52 1942.37 1554.22L1968.73 1541L2046.87 1540.26C2089.84 1539.86 2145.26 1539.15 2170.01 1538.7L2215.01 1537.87L2223.01 1535.09C2259.19 1522.48 2298.35 1490.02 2325.06 1450.5C2334.68 1436.28 2345.18 1414.99 2350.11 1399.75L2353.83 1388.22L2353.18 1220.61C2352.6 1073.74 2351.41 902.133 2350.08 775.503C2349.64 733.126 2349.11 727.441 2343.81 708.503C2327.59 650.45 2286.23 611.325 2220.01 591.361C2210.38 588.46 2208.95 588.313 2182.01 587.442C2127.5 585.679 1831.83 585.195 1566.77 586.434C1266.32 587.838 1229.28 588.358 1216.51 591.352C1187.21 598.216 1161 612.538 1138.73 633.86C1112.77 658.711 1097.01 690.515 1093.59 725.003C1093.04 730.503 1092.34 770.328 1092.04 813.503C1091.73 856.678 1091.04 920.353 1090.49 955.003C1088.96 1051.92 1087.58 1132.78 1086.85 1167.75L1086.19 1199.5L1070.6 1199.48C1033.68 1199.44 996.23 1192.47 970.756 1180.91L963.506 1177.62V926.612V675.606L966.111 667.305C967.544 662.739 970.742 654.053 973.218 648.003C1003.89 573.056 1054.87 524.368 1117.06 510.616C1121.98 509.529 1127.58 508.453 1129.51 508.227C1131.43 508 1397.38 507.857 1720.51 507.909C2285.98 507.999 2308.31 508.072 2316.01 509.832ZM484.741 672.133C500.287 682.929 522.211 698.117 533.461 705.883C558.676 723.29 567.369 731.543 573.267 743.677C579.858 757.237 581.017 770.282 577.029 786.003C574.906 794.37 565.776 812.498 558.7 822.397C532.597 858.913 501.491 870.089 470.006 854.262C464.092 851.289 455.874 845.753 409.506 813.507C396.581 804.519 381.163 793.83 375.244 789.754L364.482 782.344L369.571 775.173C372.369 771.23 378.301 762.697 382.752 756.211C387.727 748.961 391.34 744.609 392.132 744.913C392.84 745.185 404.352 753.002 417.713 762.284C431.074 771.567 451.888 786.03 463.965 794.424C488.137 811.223 494.553 814.876 502.396 816.301C511.608 817.976 518.337 815.431 526.161 807.314C541.464 791.437 542.814 774.634 529.819 761.768C524.857 756.855 523.023 755.543 463.811 714.533L428.616 690.158L436.018 679.58C440.089 673.763 445.943 665.291 449.027 660.753C452.111 656.215 455.048 652.503 455.555 652.503C456.061 652.503 469.195 661.336 484.741 672.133ZM2485.53 656.067C2490.06 656.927 2498.55 659.34 2504.39 661.429C2570.7 685.152 2627.47 725.721 2686.33 791.443C2701.61 808.51 2713.29 826.436 2728.72 856.503C2744.45 887.179 2758.56 920.966 2765.16 943.778C2767.6 952.235 2767.89 955.125 2768.58 978.503C2768.99 992.528 2769.66 1034.83 2770.06 1072.5L2770.8 1141L2761.4 1132C2756.23 1127.05 2721.67 1093.97 2684.6 1058.5L2617.2 994.003L2617.88 956.003C2618.26 935.103 2619 896.013 2619.54 869.135L2620.5 820.268L2617.97 815.635C2609.93 800.884 2589.32 783.716 2572.98 778.148C2567.11 776.147 2559.58 776.028 2555.18 777.867C2551.05 779.589 2546.87 784.508 2545.59 789.143C2544.95 791.491 2544.92 840.17 2545.51 930.862C2546 1006.84 2546.69 1132.23 2547.03 1209.5C2547.46 1305.77 2548 1350.95 2548.74 1353C2550.96 1359.21 2557.87 1372.22 2562.04 1378.09C2568.34 1386.94 2578.71 1396.8 2585.55 1400.45C2597.76 1406.96 2611.82 1405.53 2617.31 1397.22L2620.01 1393.14L2619.75 1328.57C2619.6 1293.06 2619.21 1252.15 2618.88 1237.66L2618.27 1211.31L2620.64 1212.55C2652.96 1229.51 2728.39 1303.99 2756.81 1347C2767.03 1362.46 2767.48 1363.85 2767.5 1379.87C2767.52 1411.44 2761.29 1593.06 2760.14 1594.2C2759.18 1595.17 2707.88 1564.52 2668.01 1539.16C2587.22 1487.77 2511.82 1433.5 2449.01 1381.53C2441.31 1375.16 2432.31 1367.86 2429.01 1365.31C2406.48 1347.92 2397.82 1330.01 2394.53 1294C2392.02 1266.62 2391.49 1226.31 2390.43 985.727L2389.33 733.451L2391.52 726.227C2403.21 687.634 2425.72 662.199 2453.56 656.113C2462.32 654.198 2475.58 654.179 2485.53 656.067ZM2147.51 661.022C2171.07 666.421 2193.64 684.143 2205.76 706.766L2209.11 713.003L2208.41 781.003C2208.03 818.403 2207.4 860.759 2207 875.127L2206.29 901.25L2193.65 903.938C2154.27 912.309 2103.5 928.799 2076.22 942.073C2072.35 943.96 2068.56 945.503 2067.82 945.503C2066.74 945.503 2066.57 943.886 2067.01 937.753C2067.8 926.666 2069.5 846.041 2069.5 820.003C2069.5 807.903 2069.03 796.329 2068.46 794.284C2066.33 786.624 2059.6 781.503 2051.64 781.503C2034.89 781.503 2007.08 801.27 1998.1 819.569C1996.05 823.731 1994.06 829.581 1993.67 832.569C1992.9 838.432 1993.95 1114.76 1995.39 1284C1996.19 1377.38 1996.45 1388.62 1997.99 1394C1998.92 1397.3 2000.39 1401.18 2001.24 1402.62C2009.76 1417.08 2037.75 1403.47 2058.02 1375C2068.71 1359.99 2067.86 1366.72 2066.63 1307.1C2065.61 1257.14 2065.1 1204.65 2065.38 1176.95L2065.51 1163.89L2074.9 1157.67C2106.13 1137.02 2146.91 1122.48 2200.31 1112.94C2205.43 1112.02 2209.84 1111.51 2210.12 1111.79C2211.33 1112.99 2211.75 1262.44 2210.6 1281.5C2208.51 1316.29 2204.43 1335.6 2195.28 1354C2184.17 1376.34 2170.39 1391.43 2131.01 1424.35C2079.55 1467.36 2022.26 1500.7 1939.7 1535.69C1909.63 1548.44 1889.9 1552.79 1872.92 1550.43C1852.99 1547.66 1841.5 1538.17 1834.85 1519L1832.08 1511L1831.42 1307C1831.07 1194.8 1830.44 1072.85 1830.04 1036C1829.34 971.764 1829.39 968.138 1831.45 948.003C1835.46 908.815 1837.91 896.597 1844.5 883.003C1848.72 874.311 1853.93 867.493 1860.79 861.704C1863.2 859.668 1871.43 851.049 1879.09 842.55C1947.05 767.088 2022.94 702.906 2075.55 676.402C2105.32 661.402 2128 656.553 2147.51 661.022ZM2051.38 665.958C2051.13 666.208 2044.87 670.304 2037.47 675.06C2030.06 679.816 2019.62 687.036 2014.25 691.105L2004.49 698.503H1668.61H1332.73L1323.87 701.065C1297.59 708.662 1269.98 727.857 1252.89 750.411C1241.28 765.742 1231.85 788.158 1229.5 806.003C1228.99 809.901 1228.09 924.674 1227.47 1065.02C1226.48 1289.41 1226.52 1317.75 1227.87 1323.52C1229.92 1332.26 1232.05 1338.06 1234.48 1341.47C1236.39 1344.14 1236.51 1345.83 1236.51 1369.85C1236.51 1383.89 1236.15 1395.61 1235.71 1395.88C1234.39 1396.69 1226.4 1392.66 1221.68 1388.79C1209.09 1378.47 1198.63 1356.71 1194.64 1332.5C1193.9 1328.03 1193.48 1243.99 1193.29 1063C1193.02 816.042 1193.11 799.601 1194.74 793.41C1201.93 766.11 1215.62 740.165 1233.8 719.395C1257.18 692.673 1287.63 674.906 1322.51 667.628C1331.87 665.673 1337.06 665.644 1691.92 665.574C1889.88 665.535 2051.63 665.708 2051.38 665.958ZM3011.52 732.503C3019.38 744.878 3029.36 760.51 3033.7 767.24C3047.54 788.711 3053.51 804.198 3053.51 818.614C3053.51 840.201 3042.94 855.859 3021 866.799C3001.51 876.518 2981.38 875.499 2961.19 863.771C2951.35 858.06 2942.28 847.979 2930.2 829.341L2919.39 812.679L2901.7 823.929C2891.97 830.117 2881.14 837.044 2877.63 839.323C2874.12 841.601 2870.88 843.234 2870.42 842.951C2869.96 842.669 2866.84 838.065 2863.48 832.72C2860.12 827.376 2854.73 818.953 2851.5 814.003C2846.13 805.781 2845.77 804.888 2847.32 803.667C2848.24 802.932 2855.53 798.173 2863.51 793.09C2871.48 788.007 2885.43 779.098 2894.51 773.292C2974 722.431 2996.01 708.622 2996.58 709.262C2996.94 709.669 3003.67 720.128 3011.52 732.503ZM2971.01 779.6C2960.01 786.74 2950.35 792.969 2949.56 793.443C2948.39 794.136 2949.37 796.227 2954.55 804.153C2962.21 815.859 2969.53 823.962 2974.91 826.708C2978.02 828.297 2980.29 828.631 2986.02 828.342C2992.2 828.03 2994.05 827.465 2999.11 824.348C3011.31 816.832 3014.37 805.224 3007.81 791.3C3003.9 782.985 2993.36 766.494 2992.01 766.566C2991.46 766.595 2982.01 772.461 2971.01 779.6ZM2238.3 782.42C2240.34 783.475 2244.03 786.419 2246.51 788.963L2251.01 793.589V1059.3V1325L2248.62 1332C2231.9 1381.03 2196.39 1422.47 2151.95 1444.79C2141.53 1450.02 2121.68 1458.01 2120.94 1457.27C2120.75 1457.08 2123.83 1454.46 2127.8 1451.46C2145.09 1438.36 2172.16 1414.94 2186.06 1401.05C2208.59 1378.52 2219.77 1362.34 2224.44 1345.5C2226.47 1338.16 2226.51 1336.24 2226.51 1217.62V1097.19L2224.08 1094.01C2222.74 1092.26 2219.14 1089.51 2216.08 1087.91L2210.51 1085L2210.51 999.882L2210.51 914.761L2215.42 914.108C2218.13 913.749 2221.73 912.972 2223.42 912.382L2226.51 911.307V846.572C2226.51 810.967 2226.81 781.536 2227.17 781.17C2228.49 779.849 2234.66 780.542 2238.3 782.42ZM391.791 868.448C421.831 876.131 446.559 896.865 456.536 922.736C462.503 938.21 463.904 952.212 461.065 968.003C458.45 982.551 453.898 994.252 438.502 1026C432.901 1037.55 426.337 1051.14 423.914 1056.19C421.491 1061.25 419.17 1065.58 418.757 1065.82C417.955 1066.28 414.29 1064.56 371.506 1043.71C356.381 1036.34 341.306 1029.05 338.006 1027.51C334.706 1025.97 318.956 1018.33 303.006 1010.54C287.056 1002.74 270.512 994.743 266.242 992.765C259.566 989.672 258.567 988.885 259.117 987.154C259.468 986.046 267.283 969.773 276.483 950.991C294.368 914.479 300.866 903.604 311.776 891.921C332.268 869.979 362.779 861.028 391.791 868.448ZM586.459 1746.5C588.908 1750.08 600.045 1766.23 611.209 1782.4L631.506 1811.8L631.509 2040.9C631.511 2251.49 631.376 2270.56 629.841 2276.89C628.313 2283.18 628.051 2283.61 626.755 2281.89C621.379 2274.75 602.221 2247.64 594.331 2236C529.505 2140.43 475.935 2030.87 441.036 1922.5C433.326 1898.56 431.738 1893.32 426.497 1874.5C384.887 1725.11 371.698 1572.21 387.078 1417.5C388.622 1401.98 389.052 1398.33 391.972 1376C406.971 1261.34 441.313 1141.97 490.8 1032.5C497.253 1018.23 523.719 964.933 530.345 952.869C544.57 926.969 565.124 892.141 575.413 876.503L581.006 868.003L581.506 1304L582.006 1740L586.459 1746.5ZM3112 903.503C3116.27 913.128 3120.36 922.396 3121.08 924.098L3122.4 927.192L3106.2 934.485C3088.54 942.44 3061.93 954.398 3054.01 957.947C3017.39 974.344 3012.09 977.028 3006.82 981.842C2999.63 988.422 2997.51 992.736 2997.51 1000.81C2997.51 1015.12 3006.98 1031.48 3017.89 1036.03C3020.03 1036.92 3024.14 1037.65 3027.02 1037.65C3035.7 1037.65 3039.77 1036.24 3068.01 1023.52C3132.66 994.377 3148.78 987.383 3149.54 988.14C3151.19 989.797 3168.31 1029.01 3167.66 1029.65C3167.3 1030 3153.96 1036.15 3138.01 1043.3C3122.06 1050.45 3097.98 1061.25 3084.51 1067.3C3054.83 1080.61 3048.95 1082.56 3036.51 1083.22C3006.11 1084.82 2981.78 1063.89 2966.05 1022.6C2961.21 1009.9 2959.51 1001.1 2959.51 988.766C2959.51 976.007 2961.19 968.546 2966.03 959.9C2973.5 946.532 2984.03 938.089 3004.9 928.725C3011.56 925.738 3025.56 919.46 3036.01 914.774C3046.46 910.088 3061.53 903.325 3069.51 899.746C3100.1 886.016 3103.02 884.785 3103.62 885.385C3103.95 885.725 3107.73 893.878 3112 903.503ZM351.611 913.018C340.543 916.132 329.34 924.463 323.258 934.102C320.016 939.24 309.506 959.978 309.506 961.237C309.506 961.752 313.894 964.249 319.256 966.788C324.618 969.327 340.706 977.1 355.006 984.061C391.038 1001.6 407.623 1009.51 408.37 1009.49C409.218 1009.47 418.957 988.411 421.394 981.329C425.682 968.866 425.054 956.545 419.529 944.738C409.755 923.852 373.42 906.882 351.611 913.018ZM675.296 974.753C693.507 998.51 716.724 1024.78 740.977 1049.06C766.404 1074.52 784.068 1090.07 807.605 1107.71L823.204 1119.4L823.877 1181.7C824.502 1239.52 827.404 1393.73 827.876 1394.21C827.991 1394.32 832.309 1384.2 837.471 1371.71C842.633 1359.22 853.928 1331.9 862.57 1311C903.792 1211.32 909.985 1196.32 913.782 1187C916.022 1181.5 917.961 1176.86 918.09 1176.68C918.22 1176.5 921.404 1178.57 925.166 1181.28C944.115 1194.94 968.791 1207.09 993.506 1214.93C1012.32 1220.9 1027.68 1223.58 1046.76 1224.23C1055.97 1224.54 1063.51 1225.04 1063.51 1225.34C1063.51 1226.01 1042.77 1288.52 1027.13 1335C1007.95 1392 990.928 1441.46 971.026 1498C962.011 1523.62 961.8 1524.3 959.36 1535.7C957.656 1543.66 957.139 1549.52 957.081 1561.5C956.999 1578.55 957.782 1583.09 963.026 1596C970.899 1615.39 983.108 1654.86 1025.5 1798C1053.43 1892.31 1078.09 1970.79 1086.34 1991.67C1087.32 1994.16 1087.16 1994.42 1083.7 1995.79C1041.56 2012.44 980.924 2001.72 923.006 1967.37L913.006 1961.43L906.652 1934.22C903.157 1919.25 896.289 1889.9 891.39 1869C886.491 1848.1 880.692 1823.35 878.505 1814C876.317 1804.65 872.038 1786.43 868.997 1773.5C865.955 1760.58 861.904 1743.25 859.994 1735C858.084 1726.75 854.718 1712.35 852.513 1703C843.325 1664.04 840.072 1650.16 836.513 1634.71C834.45 1625.76 832.552 1618.22 832.296 1617.96C831.737 1617.4 830.743 1694.68 829.84 1808.8C829.473 1855.21 828.784 1892.83 828.296 1893.13C827.036 1893.91 815.282 1886.72 803.563 1878C770.39 1853.31 723.398 1803.52 677.242 1744.17C670.898 1736.01 665.435 1728.14 665.103 1726.67C664.32 1723.21 663.006 960.503 663.784 960.503C664.108 960.503 669.289 966.915 675.296 974.753ZM1653.44 1158.5C1654.03 1220.93 1655.21 1355.64 1656.07 1457.87L1657.62 1643.73L1647.4 1661.87C1592.55 1759.17 1527.31 1832.08 1454.01 1878.01C1434.63 1890.15 1406.03 1904.02 1385.01 1911.48C1375.51 1914.84 1354.92 1920.14 1344.01 1922.03C1330.61 1924.35 1311.98 1924.41 1303.58 1922.17C1282.4 1916.51 1268.47 1902.45 1259.83 1878L1257.01 1870L1256.75 1529.5L1256.49 1189L1271.53 1185.19C1316.74 1173.75 1363.11 1153.12 1404.76 1125.9L1417.51 1117.57V1441.46C1417.51 1664.54 1417.84 1767.79 1418.57 1773.18C1421.01 1791.14 1428.66 1797.49 1443.75 1794.09C1453.61 1791.86 1461.62 1787.22 1471.09 1778.25C1478.57 1771.17 1488.72 1757.91 1492.87 1749.8C1494.36 1746.88 1494.51 1732.71 1494.51 1585.22C1494.51 1496.46 1494.81 1344.05 1495.17 1246.55L1495.84 1069.25L1500.92 1067.17C1509.44 1063.67 1532.42 1052.11 1543.01 1046C1575.17 1027.42 1610.74 1000.5 1642.51 970.722L1651.01 962.752L1651.69 1003.88C1652.06 1026.5 1652.85 1096.08 1653.44 1158.5ZM2917.19 1007.25C2980.43 1139.2 3020.22 1282.25 3033.54 1425.5C3036.97 1462.29 3037.71 1479.03 3038.2 1529.5C3038.73 1584.6 3037.81 1611.53 3033.96 1653.5C3026.67 1732.95 3012.66 1807.45 2990.52 1884.5C2953.37 2013.75 2892.26 2141.03 2813.15 2253.91L2805.51 2264.81V1992.66V1720.5H2291.91H1778.32L1786.38 1711.52C1790.82 1706.58 1796.74 1699.62 1799.55 1696.04L1804.65 1689.55L2061.83 1689.24C2300.98 1688.95 2319.71 1688.81 2329.01 1687.19C2384.18 1677.57 2436.56 1651.21 2476.33 1613.03C2505.28 1585.25 2524.86 1555.38 2536.93 1520.61C2540.58 1510.1 2545.51 1490.48 2545.51 1486.47C2545.51 1485.13 2545.99 1484.48 2546.76 1484.78C2547.44 1485.05 2556.33 1491.02 2566.51 1498.04C2625.44 1538.7 2737.83 1612.07 2745.13 1614.63C2752.01 1617.05 2761.71 1617.05 2767.01 1614.63C2772.41 1612.16 2779.12 1604.63 2782.45 1597.29L2785.19 1591.24L2798.64 1609.62C2806.04 1619.73 2833.67 1657.67 2860.05 1693.92L2908.01 1759.84L2908.26 1375.67C2908.39 1164.38 2908.76 991.503 2909.08 991.503C2909.39 991.503 2913.04 998.591 2917.19 1007.25ZM266.166 1071.61C284.778 1077.17 302.031 1082.3 304.506 1083.01C326.578 1089.35 399.762 1111.43 400.226 1111.89C400.781 1112.45 389.72 1151.52 388.399 1153.67C387.775 1154.69 381.637 1156.47 339.506 1167.86C326.031 1171.5 304.206 1177.4 291.006 1180.97C277.806 1184.54 264.306 1188.19 261.006 1189.09C249.151 1192.29 242.173 1189.51 320.006 1212.61C370.151 1227.49 366.794 1226.3 366.201 1228.87C365.929 1230.04 363.264 1239.1 360.279 1249C356.425 1261.78 354.438 1266.96 353.429 1266.85C352.646 1266.77 324.556 1258.53 291.006 1248.54C257.456 1238.55 220.106 1227.43 208.006 1223.83C195.906 1220.23 185.493 1217 184.865 1216.65C183.341 1215.79 198.391 1164.7 200.508 1163.55C202.001 1162.73 212.808 1159.61 278.74 1140.92C297.843 1135.5 313.143 1130.77 312.74 1130.39C312.119 1129.82 267.514 1116.33 229.261 1105.14C222.318 1103.11 218.515 1101.52 218.511 1100.62C218.507 1099.5 221.596 1088.62 229.122 1063.25C229.407 1062.29 230.245 1061.5 230.984 1061.5C231.722 1061.5 247.554 1066.05 266.166 1071.61ZM3208.32 1154.25C3220.03 1195.37 3229.58 1229.46 3229.55 1230.02C3229.53 1230.57 3226.47 1231.87 3222.76 1232.89C3219.04 1233.92 3212.11 1235.89 3207.36 1237.28C3202.6 1238.66 3198.1 1239.56 3197.36 1239.28C3196.58 1238.98 3193.5 1229.89 3190.11 1217.88C3181.3 1186.68 3181.58 1187.5 3179.9 1187.5C3179.06 1187.5 3172.44 1189.25 3165.19 1191.39C3150.7 1195.67 3045.54 1225.6 3044.13 1225.85C3043.23 1226.01 3030.28 1182.39 3031.01 1181.67C3031.23 1181.45 3062.14 1172.5 3099.71 1161.8C3137.27 1151.09 3168.11 1142.22 3168.25 1142.09C3168.38 1141.96 3167.32 1137.84 3165.89 1132.93C3159.93 1112.51 3153.54 1089.14 3153.83 1088.85C3154.26 1088.42 3184.78 1079.6 3186.02 1079.55C3186.59 1079.52 3196.62 1113.14 3208.32 1154.25ZM1088.45 1278C1089.82 1334.73 1092.17 1393.71 1093.58 1406.92C1097.34 1442.1 1123.61 1478.97 1164.81 1506.9C1183.51 1519.57 1210.67 1531.33 1228.9 1534.65L1235.79 1535.9L1235.09 1553.45C1234.7 1563.11 1233.98 1576.63 1233.48 1583.5C1232.97 1590.38 1232.55 1601.71 1232.53 1608.69C1232.51 1619.89 1232.3 1621.43 1230.76 1621.87C1224.72 1623.59 1201.13 1624.7 1180.81 1624.22C1131.01 1623.04 1091 1611.51 1054.58 1587.83C1029.64 1571.61 1003.04 1544.42 991.553 1523.42C988.789 1518.37 988.747 1518.08 990.198 1514.1C991.021 1511.85 994.994 1500.33 999.027 1488.5C1003.06 1476.68 1009.32 1458.34 1012.94 1447.76C1029.62 1399.03 1032.77 1389.81 1038.86 1372C1042.43 1361.55 1051.5 1335 1059.01 1313C1066.52 1291 1075.6 1264.45 1079.18 1254C1082.76 1243.55 1085.93 1234.2 1086.23 1233.21C1086.52 1232.23 1086.89 1231.55 1087.05 1231.71C1087.21 1231.87 1087.84 1252.7 1088.45 1278ZM3240.53 1283.75C3240.54 1284.44 3240.98 1287.93 3241.5 1291.5C3255.9 1389.48 3258.74 1409.6 3258.25 1410.1C3257.04 1411.3 3224.99 1415.28 3224.38 1414.3C3224.03 1413.73 3223.26 1409.61 3222.66 1405.14C3222.07 1400.66 3219.76 1384.63 3217.52 1369.5C3215.29 1354.38 3213.18 1340.09 3212.85 1337.75C3212.5 1335.36 3211.69 1333.5 3210.99 1333.5C3208.99 1333.5 3183.19 1337.49 3182.82 1337.85C3182.64 1338.04 3184.33 1350.75 3186.57 1366.1C3188.82 1381.44 3191.27 1398.28 3192.02 1403.5C3192.77 1408.73 3193.08 1413.28 3192.7 1413.62C3191.85 1414.37 3159.62 1418.96 3159.09 1418.4C3158.73 1418.03 3151.75 1371.09 3149.34 1352.87C3148.75 1348.4 3147.98 1344.29 3147.64 1343.74C3147.11 1342.9 3110.06 1347.52 3105.91 1348.95C3105.14 1349.21 3105.66 1355.1 3107.6 1368.16C3114.4 1413.97 3116.72 1430.62 3116.38 1430.97C3116.17 1431.17 3112.4 1431.85 3108 1432.48C3103.6 1433.11 3096.18 1434.21 3091.51 1434.93C3086.83 1435.64 3082.81 1436.06 3082.58 1435.85C3082.16 1435.49 3081.27 1429.77 3076.02 1394C3072.08 1367.08 3067.81 1338.19 3065.56 1323.07C3064.04 1312.91 3063.79 1308.95 3064.61 1308.44C3065.23 1308.05 3069.4 1307.26 3073.87 1306.67C3078.35 1306.08 3089.66 1304.46 3099.01 1303.07C3108.36 1301.68 3128.38 1298.75 3143.51 1296.55C3167.95 1293.01 3216.54 1285.84 3231.51 1283.58C3239.58 1282.36 3240.5 1282.38 3240.53 1283.75ZM347.506 1295.91C347.506 1299.01 341.229 1342.15 340.715 1342.57C340.325 1342.9 332.356 1344.65 323.006 1346.48C313.656 1348.3 305.501 1350.29 304.884 1350.9C304.266 1351.51 302.783 1359.65 301.587 1369C299.7 1383.77 297.713 1398.96 296.013 1411.61L295.529 1415.21L312.267 1423.47C321.474 1428.01 329.133 1431.84 329.288 1431.98C329.551 1432.22 328.999 1436.71 325.047 1466.5C324.209 1472.83 323.519 1478.15 323.514 1478.34C323.507 1478.64 303.453 1468.28 288.006 1460C280.619 1456.04 269.292 1450.07 232.006 1430.5C216.056 1422.12 200.306 1413.82 197.006 1412.04C193.706 1410.26 182.962 1404.6 173.13 1399.45L155.255 1390.1L155.858 1384.05C156.19 1380.72 157.14 1373.05 157.969 1367C158.798 1360.95 159.972 1351.95 160.577 1347C161.183 1342.05 161.977 1337.72 162.342 1337.38C162.707 1337.04 174.481 1334.2 188.506 1331.06C202.531 1327.92 216.706 1324.73 220.006 1323.96C223.306 1323.19 250.081 1317.13 279.506 1310.5C308.931 1303.87 335.481 1297.82 338.506 1297.05C344.13 1295.62 347.506 1295.19 347.506 1295.91ZM235.506 1363.93L205.006 1370.16L234.249 1384.83C250.333 1392.9 263.657 1399.5 263.857 1399.5C264.057 1399.5 264.504 1396.92 264.851 1393.75C265.575 1387.14 268.262 1366.88 269.157 1361.29C269.68 1358.02 269.507 1357.52 267.884 1357.6C266.851 1357.66 252.281 1360.51 235.506 1363.93ZM1477.51 1443.5V1461.5H1458.01H1438.51V1443.5V1425.5H1458.01H1477.51V1443.5ZM1815.51 1445V1464.5H1746.01H1676.51V1445V1425.5H1746.01H1815.51V1445ZM3262.96 1483.75C3263.32 1489.39 3263.7 1512 3263.81 1534C3264.03 1578.55 3263.59 1582.72 3257.35 1595.5C3252.82 1604.77 3241.98 1615.44 3234.01 1618.48C3220.84 1623.5 3199.26 1622.04 3187.51 1615.34C3180.54 1611.36 3170.79 1601.49 3166.6 1594.16C3164.82 1591.05 3162.92 1588.5 3162.39 1588.5C3161.85 1588.5 3144.9 1601.84 3124.71 1618.13L3088.01 1647.76L3087.37 1634.38C3086.37 1613.11 3086.41 1590.7 3087.45 1590.34C3087.97 1590.15 3102.37 1579.21 3119.45 1566.02L3150.51 1542.05V1531.62V1521.19L3118.07 1521.78L3085.63 1522.38L3085.02 1517.19C3084.68 1514.34 3084.53 1503.9 3084.7 1494L3085.01 1476L3128.51 1475.28C3152.43 1474.89 3178.53 1474.43 3186.51 1474.26C3194.48 1474.09 3214.8 1473.85 3231.66 1473.72L3262.31 1473.5L3262.96 1483.75ZM322.911 1530.11C323.301 1542.55 323.338 1553 322.995 1553.35C322.651 1553.69 311.713 1554.29 298.688 1554.67C285.663 1555.06 261.506 1555.85 245.006 1556.43C228.506 1557.01 212.756 1557.5 210.006 1557.53C205.464 1557.58 208.604 1558.97 244.256 1572.67L283.506 1587.75V1603.13C283.506 1611.58 283.553 1618.83 283.611 1619.23C283.704 1619.86 273.369 1624.93 248.455 1636.45C244.358 1638.34 234.706 1642.88 227.006 1646.53C219.306 1650.18 212.331 1653.48 211.506 1653.85C210.681 1654.22 219.231 1654.28 230.506 1654C265.918 1653.09 310.678 1651.57 319.096 1650.99L327.187 1650.43L327.816 1672.16C328.162 1684.12 328.328 1694.01 328.184 1694.16C327.874 1694.47 245.966 1697.54 169.364 1700.11L150.721 1700.74L150.149 1696.87C149.834 1694.74 149.281 1682.64 148.921 1669.98L148.266 1646.95L175.136 1633.83C231.866 1606.11 235.703 1604.12 233.811 1603.39C231.394 1602.46 150.588 1569.7 147.881 1568.56C145.883 1567.71 145.717 1566.72 145.114 1551.83C144.761 1543.13 144.201 1530.94 143.869 1524.75L143.266 1513.5L147.636 1513.49C150.04 1513.48 171.131 1512.82 194.506 1512.02C217.881 1511.22 251.856 1510.08 270.006 1509.49C288.156 1508.91 304.356 1508.29 306.006 1508.12C307.656 1507.96 311.975 1507.75 315.604 1507.66L322.202 1507.5L322.911 1530.11ZM3202.63 1520.23L3183.25 1520.55L3183.79 1536.78C3184.08 1545.7 3184.83 1554.68 3185.46 1556.73C3187.14 1562.29 3192.46 1568.72 3197.48 1571.25C3206.25 1575.69 3220.18 1573.55 3225.35 1566.97C3229.52 1561.67 3230.58 1555.23 3230.28 1536.91L3230.01 1520L3226.01 1519.96C3223.81 1519.93 3213.28 1520.06 3202.63 1520.23ZM1474.51 1577.5V1618.5H1457.01H1439.51V1578.17C1439.51 1555.99 1439.81 1537.54 1440.17 1537.17C1440.54 1536.8 1448.41 1536.5 1457.67 1536.5H1474.51V1577.5ZM336.423 1747.25C336.969 1749.32 338.575 1756.63 339.99 1763.5C341.406 1770.38 343.153 1778.83 343.874 1782.29C344.594 1785.75 344.885 1788.77 344.521 1788.99C344.156 1789.22 338.491 1790.53 331.932 1791.9C325.373 1793.27 311.231 1796.24 300.506 1798.5C289.781 1800.76 278.306 1803.18 275.006 1803.88C270.942 1804.73 269.041 1805.6 269.115 1806.57C269.281 1808.74 278.702 1853.71 282.062 1868.38C282.703 1871.17 280.733 1871.39 308.506 1865.52C319.231 1863.25 330.031 1860.99 332.506 1860.5C334.981 1860 341.249 1858.67 346.435 1857.55C359.418 1854.73 359.12 1854.68 360.376 1860.25C362.69 1870.54 368.506 1898.54 368.506 1899.39C368.506 1900.4 367.317 1900.69 339.756 1906.47C329.169 1908.69 312.069 1912.28 301.756 1914.46C291.444 1916.64 266.806 1921.82 247.006 1925.98C227.206 1930.14 208.214 1934.21 204.8 1935.02C193.591 1937.7 194.158 1938.12 191.539 1925.25C190.279 1919.07 188.18 1909.09 186.874 1903.09C185.569 1897.09 184.614 1892.06 184.753 1891.92C184.892 1891.79 196.931 1889.15 211.506 1886.06C226.081 1882.98 240.376 1879.94 243.272 1879.32C247.338 1878.44 248.426 1877.82 248.05 1876.59C247.544 1874.94 243.207 1854.72 238.914 1834C234.231 1811.4 234.515 1812.29 232.137 1812.87C228.487 1813.77 178.209 1824.35 174.301 1825.05C170.979 1825.64 170.539 1825.47 170.047 1823.36C169.34 1820.33 165.089 1800.3 162.998 1790.14C162.107 1785.82 161.593 1781.72 161.856 1781.03C162.118 1780.35 164.06 1779.53 166.17 1779.22C169.626 1778.7 227.465 1766.59 243.506 1763.02C247.081 1762.23 255.631 1760.42 262.506 1759C269.381 1757.59 277.931 1755.79 281.506 1755C285.081 1754.21 293.856 1752.36 301.006 1750.88C308.156 1749.41 318.506 1747.19 324.006 1745.96C329.506 1744.73 334.326 1743.68 334.717 1743.61C335.109 1743.55 335.876 1745.19 336.423 1747.25ZM3153.18 1758.58C3182.5 1762.61 3207.96 1776.48 3221.69 1795.91C3231.37 1809.61 3235.37 1821.91 3236.21 1840.59C3237.42 1867.29 3228.77 1896.3 3212.92 1918.75C3209.52 1923.57 3206.76 1926.5 3205.63 1926.5C3204.63 1926.5 3196.21 1924.9 3186.91 1922.95C3177.61 1920.99 3168.77 1919.14 3167.26 1918.82C3162.26 1917.79 3163.83 1914.83 3175.03 1904.2C3180.85 1898.68 3187.73 1890.97 3190.41 1886.96C3197.37 1876.55 3199.01 1870.61 3198.97 1856C3198.94 1844.66 3198.76 1843.63 3195.77 1837.22C3190.2 1825.29 3178.55 1815.65 3163.51 1810.53C3130.36 1799.26 3102.38 1806.99 3090.39 1830.74C3085.6 1840.23 3084.18 1847.5 3084.78 1859.5C3085.34 1870.88 3087.64 1878.8 3094.13 1891.73C3097.23 1897.89 3098.3 1902.38 3096.99 1903.69C3096.47 1904.2 3055.73 1896.06 3054.96 1895.29C3054.73 1895.07 3053.58 1890.18 3052.39 1884.44C3049.28 1869.4 3049.25 1845.98 3052.32 1831.79C3061.33 1790.13 3085.16 1764.46 3120.34 1758.53C3127.37 1757.34 3144.37 1757.37 3153.18 1758.58ZM1187.84 1790.17L1234.51 1790.83V1812.11C1234.51 1823.81 1234.17 1833.56 1233.76 1833.77C1233.34 1833.99 1223.11 1833.82 1211.01 1833.4C1160.41 1831.63 1120.18 1830.44 1091.51 1829.85C1074.73 1829.51 1060.21 1828.82 1059.24 1828.32C1054.97 1826.13 1049.86 1813.9 1047.54 1800.34C1046.95 1796.86 1046.24 1792.99 1045.96 1791.75L1045.47 1789.5H1093.32C1119.64 1789.5 1162.18 1789.8 1187.84 1790.17ZM2728.51 2046.5V2295.5H1719.51H710.506V2057.42C710.506 1926.47 710.87 1819.49 711.315 1819.67C711.761 1819.85 716.055 1824.28 720.859 1829.5C730.209 1839.67 765.907 1874.31 789.248 1895.86L803.491 1909L803.498 2040.25L803.506 2171.5H1718.51H2633.51V2002.5V1833.5H2095.09H1556.68L1567.7 1822.25C1573.77 1816.07 1581.44 1807.97 1584.76 1804.25L1590.8 1797.5H2159.65H2728.51V2046.5ZM1237.51 1876.56C1237.51 1881.62 1240.58 1893.52 1243.96 1901.53C1260.87 1941.63 1301.65 1956.97 1357.01 1944.06C1394.49 1935.32 1434.88 1918.89 1461.01 1901.75C1473.37 1893.65 1489.62 1880.72 1493.24 1876.11L1495.29 1873.5H1664.4H1833.51V1917.5V1961.5H1504.01H1174.51V1917.5V1873.5H1206.01H1237.51V1876.56ZM2458.17 1923.5H2557.51V1947V1970.5H2408.51H2259.51V1946.34V1922.18L2309.17 1922.84C2336.49 1923.2 2403.54 1923.5 2458.17 1923.5ZM3045.85 1931.42C3055.44 1934.79 3090.1 1946.91 3129.01 1960.51C3135.06 1962.63 3148.56 1967.35 3159.01 1971.01C3169.46 1974.67 3182.51 1979.22 3188.01 1981.12C3193.51 1983.02 3198.62 1984.95 3199.37 1985.42C3200.47 1986.1 3199.8 1988.95 3195.92 2000.13C3186.69 2026.71 3185.77 2029.01 3184.37 2028.85C3183.62 2028.76 3178.51 2027.11 3173.01 2025.17C3167.51 2023.23 3153.78 2018.42 3142.51 2014.48C3131.23 2010.54 3117.73 2005.82 3112.51 2003.98C3107.28 2002.14 3094.01 1997.51 3083.01 1993.68C3072.01 1989.85 3060.16 1985.72 3056.69 1984.51C3053.22 1983.3 3050.25 1982.46 3050.09 1982.65C3049.93 1982.85 3048.63 1986.38 3047.19 1990.5C3045.76 1994.63 3042.29 2004.53 3039.49 2012.5C3031.45 2035.36 3026.49 2049.61 3024.78 2054.75C3023.91 2057.37 3022.72 2059.5 3022.14 2059.5C3021.12 2059.5 2997.44 2051.43 2992.76 2049.48C2991.52 2048.97 2990.51 2048.15 2990.51 2047.66C2990.51 2047.18 2993.39 2038.51 2996.92 2028.39C3000.44 2018.28 3007 1999.43 3011.5 1986.5C3024.73 1948.42 3031.49 1929.33 3032.08 1928.39C3032.93 1927.01 3033.95 1927.24 3045.85 1931.42ZM252.348 2005.26C257.504 2019.15 262.124 2030.5 262.614 2030.5C263.104 2030.5 293.205 2019.48 329.506 2006C365.807 1992.53 395.869 1981.5 396.311 1981.5C396.752 1981.5 398.054 1984.32 399.205 1987.75C400.355 1991.19 403.839 2000.71 406.948 2008.91C410.057 2017.1 412.242 2024.16 411.803 2024.59C411.365 2025.02 381.402 2036.37 345.22 2049.81C309.038 2063.25 279.189 2074.49 278.889 2074.79C278.59 2075.09 282.406 2086.28 287.371 2099.67C292.336 2113.05 296.535 2124.65 296.702 2125.43C296.917 2126.45 292.484 2128.56 281.506 2132.68C272.981 2135.88 265.611 2138.37 265.127 2138.21C264.322 2137.94 260.702 2128.78 252.012 2105C250.203 2100.05 242.103 2078.23 234.012 2056.5C210.624 1993.7 209.915 1991.72 210.6 1991.13C211.798 1990.09 240.236 1979.71 241.489 1979.85C242.466 1979.97 246.177 1988.65 252.348 2005.26ZM438.267 2090.75C440.334 2094.82 444.493 2102.57 453.967 2120L458.315 2128L445.456 2141.88L432.597 2155.76L434.567 2159.62C439.075 2168.46 462.742 2212.06 463.414 2212.77C463.816 2213.2 472.205 2212.18 482.056 2210.52C491.908 2208.86 500.271 2207.5 500.642 2207.5C501.298 2207.5 521.702 2244.85 522.313 2247.17C522.731 2248.76 521.301 2249.08 503.506 2251.46C494.981 2252.6 483.506 2254.22 478.006 2255.06C472.506 2255.9 439.431 2260.61 404.506 2265.53C369.581 2270.45 339.625 2274.71 337.938 2275L334.87 2275.53L322.162 2252.04L309.454 2228.55L332.73 2202.22C345.532 2187.73 368.831 2161.32 384.506 2143.52C400.181 2125.73 413.458 2110.68 414.01 2110.08C414.562 2109.49 419.438 2103.94 424.846 2097.75C430.254 2091.57 435 2086.5 435.393 2086.5C435.786 2086.5 437.079 2088.42 438.267 2090.75ZM3023.51 2097.48C3028.84 2099.27 3080.95 2125.18 3100.01 2135.51C3102.76 2137.01 3112.32 2141.93 3121.26 2146.47C3130.19 2151 3137.51 2155.17 3137.51 2155.74C3137.51 2156.59 3117.95 2195.24 3116.95 2196.36C3116.66 2196.68 3101 2188.74 3055.01 2164.97C3018.83 2146.27 3011.27 2142.58 3006.11 2141.08C2990.19 2136.45 2978.71 2142.21 2970.38 2159.02C2967.09 2165.66 2966.15 2168.79 2965.75 2174.38C2965.17 2182.49 2967.02 2187.24 2973.34 2193.82C2978.94 2199.65 2978.41 2199.36 3051.01 2236.51C3070.61 2246.54 3085.4 2254.31 3086.33 2255.06C3086.66 2255.32 3076.14 2276.34 3068.96 2289.79L3065.34 2296.57L3041.67 2284.4C3028.65 2277.71 3011.59 2268.92 3003.76 2264.87C2951.55 2237.88 2951.72 2237.99 2942.86 2228.96C2932.72 2218.63 2926.63 2203.71 2926.54 2189C2926.45 2172.05 2935.49 2146.78 2948.65 2127.24C2957.99 2113.36 2974.28 2099.96 2986.01 2096.5C2996.66 2093.36 3012.43 2093.77 3023.51 2097.48ZM403.413 2187.25C382.147 2210.08 364.956 2228.84 364.716 2229.47C364.557 2229.9 365.457 2230.06 366.716 2229.84C367.976 2229.62 382.221 2227.23 398.372 2224.52C414.523 2221.82 427.948 2219.39 428.206 2219.14C428.757 2218.59 409.28 2182.53 408.422 2182.52C408.1 2182.51 405.846 2184.64 403.413 2187.25ZM542.591 2275.21C551.506 2287.15 558.955 2297.61 559.144 2298.46C559.332 2299.31 553.923 2318.68 547.123 2341.5L534.76 2383L542.81 2383.63L550.86 2384.25L574.285 2366.83C593.812 2352.3 597.901 2349.64 598.858 2350.85C599.489 2351.66 605.724 2359.99 612.712 2369.38L625.418 2386.44L621.212 2389.82C618.899 2391.68 602.381 2404.06 584.506 2417.32C566.631 2430.58 536.548 2452.95 517.654 2467.02C498.76 2481.09 482.903 2492.47 482.416 2492.3C481.929 2492.14 475.502 2483.94 468.134 2474.08L454.737 2456.17L461.372 2451.07C465.021 2448.27 479.169 2437.68 492.813 2427.53C511.899 2413.34 517.203 2408.94 515.813 2408.43C514.819 2408.06 498.031 2407.43 478.506 2407.02C458.981 2406.6 437.062 2405.98 429.797 2405.64L416.589 2405L400.96 2384C388.368 2367.08 385.689 2362.93 387.169 2362.63C388.179 2362.42 397.331 2362.78 407.506 2363.43C417.681 2364.08 436.131 2365.25 448.506 2366.04C460.881 2366.82 475.917 2367.59 481.919 2367.74L492.832 2368L508.159 2314.5C516.588 2285.08 523.957 2259.32 524.534 2257.25C525.111 2255.19 525.763 2253.5 525.982 2253.5C526.201 2253.5 533.675 2263.27 542.591 2275.21ZM2910.24 2273.72C2998.84 2337.32 3026.98 2357.83 3026.76 2358.62C3026.62 2359.1 3020.58 2367.72 3013.33 2377.75C3006.08 2387.79 2994.49 2403.85 2987.58 2413.45C2967.68 2441.06 2956.48 2450.99 2940.66 2455.04C2935.76 2456.3 2933.38 2456.4 2928.77 2455.56C2915.63 2453.16 2903.3 2443.71 2897.7 2431.76C2895.3 2426.64 2895.01 2424.83 2895.01 2415.34V2404.69L2890.51 2408.16C2888.03 2410.07 2883.08 2413.05 2879.51 2414.78C2873.57 2417.65 2872.13 2417.92 2862.96 2417.96C2853.26 2418 2852.63 2417.87 2845.06 2414.13C2830.68 2407.02 2820.1 2393.59 2817.39 2379C2815.98 2371.39 2816.88 2357.8 2819.31 2350C2823.46 2336.73 2826.96 2331.04 2855.02 2292C2866.49 2276.05 2877.22 2261.09 2878.88 2258.75C2880.54 2256.42 2882.25 2254.5 2882.68 2254.5C2883.11 2254.5 2895.51 2263.15 2910.24 2273.72ZM2872.81 2324.25C2860.96 2341 2860.77 2341.31 2859.03 2347.06C2855.84 2357.55 2858.11 2365.02 2866.28 2370.95C2877.21 2378.89 2886.79 2377.1 2896.58 2365.28C2904.56 2355.65 2917.76 2336.36 2916.91 2335.59C2914.23 2333.14 2883.55 2311.5 2882.76 2311.5C2882.25 2311.5 2877.77 2317.24 2872.81 2324.25ZM2935.42 2365.75C2926.41 2378.68 2923.53 2384.69 2923.52 2390.6C2923.49 2401.87 2938.5 2411.24 2948.31 2406.08C2952.25 2404.01 2958.31 2397.32 2966.38 2386.13L2973.49 2376.26L2959.25 2365.93C2951.41 2360.24 2944.46 2355.57 2943.79 2355.55C2943.12 2355.52 2939.35 2360.12 2935.42 2365.75ZM1714.84 2375.42C2306.97 2375.47 2715.54 2375.87 2715.34 2376.4C2714.82 2377.82 2682.77 2411.89 2671.33 2423.21L2661.01 2433.42L2571.01 2433.97C2521.51 2434.28 2094.3 2435.03 1621.65 2435.65L762.304 2436.78L747.837 2422.39C734.061 2408.69 703.306 2376.1 702.738 2374.6C702.59 2374.21 705.065 2374.22 708.238 2374.61C711.41 2375.01 1164.38 2375.37 1714.84 2375.42ZM1225.66 2509.45C1236.79 2511.36 1245.81 2513.79 1256.26 2517.69L1261.51 2519.65V2534.58C1261.51 2542.79 1261.12 2549.5 1260.65 2549.5C1260.19 2549.5 1256.47 2547.32 1252.4 2544.65C1237.06 2534.57 1219.77 2529.56 1200.21 2529.53C1185.18 2529.5 1177.25 2531.4 1169.1 2536.97C1151.59 2548.96 1154.2 2573.14 1173.79 2580.37C1179.83 2582.6 1186.06 2583.98 1205.93 2587.53C1232.35 2592.24 1246.51 2597.36 1255.81 2605.54C1264.83 2613.48 1268.48 2622.69 1268.49 2637.59C1268.51 2652.35 1264.85 2661.86 1255.15 2672.22C1246.34 2681.64 1234.84 2687.92 1219.51 2691.66C1211.15 2693.7 1178.35 2693.43 1167.51 2691.24C1157.93 2689.3 1143.61 2684.92 1135.76 2681.53L1130.51 2679.26V2663.88C1130.51 2646.52 1130.72 2646.13 1137.36 2651.39C1152.82 2663.61 1176.42 2671.52 1197.4 2671.49C1220.05 2671.46 1233.98 2665.4 1240.08 2652.94C1242.47 2648.06 1242.71 2646.61 1242.31 2639.69C1242.01 2634.47 1241.23 2630.84 1239.93 2628.64C1235.94 2621.86 1225.56 2617.18 1207.25 2613.92C1184.58 2609.88 1172.06 2607.33 1167.7 2605.88C1148.48 2599.48 1136.28 2587.5 1132.57 2571.39C1130.18 2561.02 1131.9 2546.56 1136.64 2537.22C1139.84 2530.92 1150.93 2520.56 1159.05 2516.31C1165.27 2513.04 1176.16 2509.43 1183.51 2508.2C1191.11 2506.92 1215.05 2507.63 1225.66 2509.45ZM2106.91 2509.48C2127.58 2514.77 2142.1 2529.1 2149.46 2551.5C2154.28 2566.18 2155.72 2590.86 2152.97 2611.81C2149.22 2640.42 2138.57 2662.38 2121.84 2676.01C2114.65 2681.87 2100.17 2688.89 2090.51 2691.21C2081.53 2693.36 2051.88 2693.72 2047.26 2691.73L2044.51 2690.55V2678.42C2044.51 2667.25 2044.64 2666.35 2046.26 2667.03C2057.06 2671.62 2075.24 2672.91 2086.86 2669.92C2106.9 2664.75 2121.15 2648.58 2126.01 2625.5C2128.47 2613.77 2128.75 2614.06 2119.26 2618.46C2114.72 2620.57 2107.77 2623.01 2103.81 2623.9C2094.47 2625.98 2077.52 2625.98 2068.2 2623.89C2048.22 2619.42 2033.06 2604.8 2028.41 2585.5C2026.7 2578.43 2026.7 2560.59 2028.4 2553.5C2033.46 2532.45 2049.97 2515.66 2071.77 2509.43C2080.65 2506.89 2096.88 2506.91 2106.91 2509.48ZM2268.44 2509.11C2285.47 2513.28 2299.62 2524.7 2307.35 2540.5C2313.85 2553.79 2315.56 2562.03 2316.21 2583.1C2316.82 2602.91 2315.8 2615.04 2312.4 2628.44C2307.6 2647.43 2301.5 2658.51 2288.99 2671C2278.7 2681.29 2271.09 2685.83 2257.01 2690.1C2248.69 2692.63 2246.64 2692.84 2230.01 2692.9C2218.01 2692.94 2211.09 2692.56 2209.26 2691.76L2206.51 2690.55V2679.09C2206.51 2672.78 2206.85 2667.41 2207.26 2667.15C2207.68 2666.9 2211.17 2667.76 2215.01 2669.07C2223.53 2671.97 2239.6 2672.41 2248.87 2670C2268.26 2664.95 2281.77 2650.72 2287.36 2629.46C2289.29 2622.14 2290.67 2614.5 2290.08 2614.5C2289.91 2614.5 2286.62 2616.08 2282.76 2618.01C2272.07 2623.36 2262.26 2625.51 2248.6 2625.49C2241.78 2625.48 2234.35 2624.85 2230.56 2623.95C2211.68 2619.51 2197.63 2606.61 2191.38 2588C2190.5 2585.39 2190.03 2578.96 2190.02 2569.5C2190.01 2556.85 2190.31 2554.14 2192.36 2548.18C2198.8 2529.52 2214.83 2514.77 2234.51 2509.4C2243 2507.08 2259.57 2506.94 2268.44 2509.11ZM1095.01 2522V2533L1048.26 2533.26L1001.51 2533.52V2557V2580.48L1048.26 2580.74L1095.01 2581V2591.5V2602L1048.26 2602.26L1001.51 2602.52V2635V2667.48L1048.26 2667.74L1095.01 2668V2679V2690H1036.01H977.006L976.751 2600.25L976.495 2510.49L1035.75 2510.75L1095.01 2511V2522ZM1440.51 2522V2533.5H1409.01H1377.52L1377.26 2611.75L1377.01 2690H1364.51H1352.01L1351.75 2611.75L1351.49 2533.5H1320H1288.51V2522V2510.5H1364.51H1440.51V2522ZM1533.56 2511.55C1564.14 2513.94 1583.41 2521.95 1599.19 2538.83C1615.01 2555.75 1622.35 2577.66 1621.2 2604.5C1620.54 2619.67 1618.13 2629.58 1612.01 2642.16C1599.09 2668.7 1576.7 2684 1544.01 2688.61C1538.32 2689.42 1523.05 2689.91 1502.51 2689.94L1470.01 2690L1469.75 2601.5C1469.61 2552.83 1469.7 2512.44 1469.97 2511.75C1470.58 2510.15 1513.88 2510.02 1533.56 2511.55ZM1946.51 2590.5V2670.5H1964.51H1982.51V2680.51V2690.52L1933.76 2690.26L1885.01 2690L1884.72 2680.25L1884.43 2670.5H1902.97H1921.51V2611.5V2552.5H1902.97H1884.43L1884.72 2543.75L1885.01 2535L1893.51 2534.28C1907.55 2533.09 1914.09 2530.91 1919.59 2525.6C1922.21 2523.07 1924.61 2519.77 1924.93 2518.25C1925.25 2516.74 1925.74 2514.38 1926.02 2513C1926.54 2510.54 1926.68 2510.5 1936.52 2510.5H1946.51V2590.5ZM2479.51 2524.64V2538.78L2473.36 2550.39C2469.98 2556.78 2465.53 2565.15 2463.48 2569C2455.31 2584.32 2443.51 2606.53 2438.51 2616C2435.6 2621.5 2429.63 2632.75 2425.24 2641C2420.85 2649.25 2415.23 2659.83 2412.75 2664.5C2402.97 2682.96 2400.19 2688.05 2399.24 2689.25C2398.06 2690.76 2373.96 2691.04 2373.04 2689.56C2372.72 2689.04 2377.47 2679.48 2383.59 2668.31C2389.72 2657.14 2396.91 2643.95 2399.57 2639C2402.24 2634.05 2416.33 2608.18 2430.89 2581.5L2457.37 2533L2406.94 2532.74L2356.51 2532.49V2522.16C2356.51 2516.48 2356.81 2511.54 2357.17 2511.17C2357.54 2510.8 2385.21 2510.5 2418.67 2510.5H2479.51V2524.64ZM2076.83 2529.88C2067.01 2533.1 2059.19 2540.71 2055.38 2550.76C2053.37 2556.04 2053.01 2558.77 2053.04 2568.5C2053.08 2578.75 2053.37 2580.62 2055.7 2585.67C2058.93 2592.67 2064.31 2597.97 2071.51 2601.24C2083.24 2606.57 2106.2 2605.21 2121.74 2598.26L2128.76 2595.12L2128.21 2580.06C2127.61 2563.71 2126.36 2557.72 2121.51 2547.85C2118.06 2540.85 2111.96 2534.89 2104.72 2531.45C2098.78 2528.63 2083.3 2527.76 2076.83 2529.88ZM2240.95 2529.39C2230.77 2532.01 2222.26 2539.51 2218.31 2549.36C2216.36 2554.2 2216.04 2556.85 2216.02 2568C2216.01 2579.47 2216.28 2581.61 2218.32 2586.11C2222.38 2595.08 2230.67 2601.35 2241.42 2603.59C2250.27 2605.43 2267.43 2604.22 2276.84 2601.08C2289.79 2596.76 2290.25 2596.4 2291.07 2589.84C2291.99 2582.48 2289.9 2562.95 2287.42 2555.76C2283.47 2544.26 2275.97 2535.4 2266.68 2531.23C2261.62 2528.95 2246.75 2527.89 2240.95 2529.39ZM1494.51 2600.5V2668.5H1509.79C1527.56 2668.5 1545.26 2666.51 1554.51 2663.48C1574.03 2657.06 1587.19 2643 1592.72 2622.65C1595.7 2611.66 1595.68 2589.27 1592.67 2578.19C1588.05 2561.16 1578.33 2549.06 1563.34 2541.71C1549.23 2534.78 1536.07 2532.53 1509.76 2532.51L1494.51 2532.5V2600.5ZM1712.01 2572.5V2590H1697.01H1682.01L1681.72 2574.5C1681.56 2565.98 1681.69 2557.98 1681.99 2556.73C1682.55 2554.47 1682.69 2554.45 1697.28 2554.73L1712.01 2555V2572.5ZM1712.01 2672.5V2690L1697.58 2690.28C1686.71 2690.49 1682.96 2690.25 1682.35 2689.28C1681.36 2687.73 1681.22 2656.12 1682.2 2655.14C1682.58 2654.76 1689.44 2654.58 1697.45 2654.73L1712.01 2655V2672.5Z" fill="#394078"/>
</svg>
